<svg id="Layer_1" data-name="Layer 1" xmlns="http://www.w3.org/2000/svg" viewBox="0 0 657.94 273.94"><defs><style>.cls-1{fill:#d5b078;}.cls-2{fill:#003e47;}</style></defs><path class="cls-1" d="M470.22,525.25l-30.71-30.71a20.87,20.87,0,0,0-29.49,0L364.56,540,410,585.46a20.9,20.9,0,0,0,29.49,0l30.71-30.71A20.89,20.89,0,0,0,470.22,525.25Zm-9,20.47-30.7,30.71a8.12,8.12,0,0,1-11.45,0L382.62,540,419,503.57a8.1,8.1,0,0,1,11.45,0l30.7,30.71A8.09,8.09,0,0,1,461.19,545.72Z" transform="translate(-211.03 -403.03)"/><path class="cls-1" d="M331.44,540l62-62a20.88,20.88,0,0,0,0-29.5L348,403l-51.45,51.45a20.73,20.73,0,0,0-6.11,14.75V499L286,494.54a20.89,20.89,0,0,0-29.5,0L211,540l45.45,45.46a20.88,20.88,0,0,0,29.5,0l4.46-4.46v29.77a20.73,20.73,0,0,0,6.11,14.75L348,677l45.46-45.45a20.88,20.88,0,0,0,0-29.5ZM303.2,469.23a8,8,0,0,1,2.38-5.72L348,421.08l36.43,36.43a8.12,8.12,0,0,1,0,11.45l-62,62-19.21-19.2ZM277,576.43a8.09,8.09,0,0,1-11.44,0L229.08,540l36.43-36.43a8.11,8.11,0,0,1,11.44,0L313.38,540Zm107.48,46.06L348,658.92l-42.43-42.43a8.07,8.07,0,0,1-2.37-5.72V568.23L322.41,549l62,62A8.12,8.12,0,0,1,384.43,622.49Z" transform="translate(-211.03 -403.03)"/><path class="cls-2" d="M504.49,500.72h15.7V571h44v12.4H504.49Z" transform="translate(-211.03 -403.03)"/><path class="cls-2" d="M571,551.37c0-21.25,12.75-33.77,31.52-33.77s31.64,12.52,31.64,33.77c0,21-12.63,33.52-31.64,33.52S571,572.38,571,551.37Zm48-.12c0-14.76-6.5-22.55-16.53-22.55s-16.41,7.79-16.41,22.55,6.49,22.54,16.41,22.54S619,566.12,619,551.25Zm-32.59-50.18h13.7v12.28h-13.7Zm18.66,0h13.69v12.28H605.08Z" transform="translate(-211.03 -403.03)"/><path class="cls-2" d="M637.9,519.25h15.94l8.49,24.68,8.39,24.55,8.5-24.55,8.62-24.68h15.22L679,583.36H662Z" transform="translate(-211.03 -403.03)"/><path class="cls-2" d="M706.85,551.37c0-20.78,12.75-33.77,31-33.77,17.35,0,30.34,12.28,30.34,34v1.18H721.72c.48,13.81,6.61,21.25,16.18,21.25,7.79,0,13.22-5,15.34-14.64h14.29c-2.84,16.06-13.69,25.5-29.75,25.5C719.36,584.89,706.85,572.26,706.85,551.37Zm15.47-7.56h30.81c-2-10-7.56-15.35-15.35-15.35S724.2,533.89,722.32,543.81Z" transform="translate(-211.03 -403.03)"/><path class="cls-2" d="M779.57,500.72h15.12v82.64H779.57Z" transform="translate(-211.03 -403.03)"/><path class="cls-2" d="M807.44,500.72h15.11v82.64H807.44Z" transform="translate(-211.03 -403.03)"/><path class="cls-2" d="M458.4,622.33h6.46v34H458.4Z" transform="translate(-211.03 -403.03)"/><path class="cls-2" d="M494.83,650.9a11.7,11.7,0,0,1-10.64,6c-8.64,0-14.52-6.22-14.52-17.54s6.27-17.63,15.64-17.63c8.21,0,14,4.76,15.3,13.21H494.1c-1-5.24-4.42-8.06-8.79-8.06-5.54,0-9,4.28-9,12.48s3.55,12.44,9,12.44c4.67,0,8.11-3.06,9.13-8.84H485.6v-5h15.11v18.41h-5.88Z" transform="translate(-211.03 -403.03)"/><path class="cls-2" d="M506.07,622.33h7.43l7.33,12.58,7.29,12.53-.1-12.57,0-12.54h5.68v34h-7.48l-7.33-12.49-7.24-12.43.1,12.43.05,12.49h-5.68Z" transform="translate(-211.03 -403.03)"/><path class="cls-2" d="M539.11,622.33h6.46v34h-6.46Z" transform="translate(-211.03 -403.03)"/><path class="cls-2" d="M561.65,627.48H550v-5.15h29.73v5.15H568.11v28.86h-6.46Z" transform="translate(-211.03 -403.03)"/><path class="cls-2" d="M584.2,622.33H609v5.15H590.66v8.84H604.3v5H590.66v9.91H609v5.06H584.2Z" transform="translate(-211.03 -403.03)"/><path class="cls-2" d="M635.94,627.48H624.33v-5.15h29.73v5.15H642.4v28.86h-6.46Z" transform="translate(-211.03 -403.03)"/><path class="cls-2" d="M658.49,622.33H665v13.94H680V622.33h6.46v34H680v-15H665v15h-6.46Z" transform="translate(-211.03 -403.03)"/><path class="cls-2" d="M691.92,622.33h24.82v5.15H698.38v8.84H712v5H698.38v9.91h18.36v5.06H691.92Z" transform="translate(-211.03 -403.03)"/><path class="cls-2" d="M758.53,650.9a11.71,11.71,0,0,1-10.64,6c-8.65,0-14.52-6.22-14.52-17.54S739.63,621.7,749,621.7c8.2,0,14,4.76,15.3,13.21H757.8c-1-5.24-4.42-8.06-8.79-8.06-5.54,0-9,4.28-9,12.48s3.55,12.44,9,12.44c4.66,0,8.11-3.06,9.13-8.84H749.3v-5h15.1v18.41h-5.87Z" transform="translate(-211.03 -403.03)"/><path class="cls-2" d="M780.83,622.33h7.73l12.58,34h-7.09l-2.73-7.82H777.63l-2.72,7.82h-6.66Zm-1.55,21.33h10.39l-.43-1.26-4.76-14-4.76,14Z" transform="translate(-211.03 -403.03)"/><path class="cls-2" d="M804.84,622.33h9.38l3.83,12.73,3.74,12.68,3.74-12.68,3.79-12.73h9.37v34h-6l.05-16.76.15-11-3.21,11-4.95,16.76h-6.07l-5-16.76-3.2-11,.14,11,0,16.76h-5.83Z" transform="translate(-211.03 -403.03)"/><path class="cls-2" d="M844.15,622.33H869v5.15H850.61v8.84h13.65v5H850.61v9.91H869v5.06H844.15Z" transform="translate(-211.03 -403.03)"/></svg>