<svg id="Layer_1" data-name="Layer 1" xmlns="http://www.w3.org/2000/svg" viewBox="0 0 658 274"><defs><style>.cls-1{fill:#d5b078;}.cls-2{fill:#fff;}</style></defs><path class="cls-1" d="M259.19,122.22,228.48,91.51a20.88,20.88,0,0,0-29.49,0L153.53,137,199,182.43a20.9,20.9,0,0,0,29.49,0l30.71-30.71A20.9,20.9,0,0,0,259.19,122.22Zm-9,20.47-30.7,30.71a8.12,8.12,0,0,1-11.45,0L171.59,137,208,100.54a8.1,8.1,0,0,1,11.45,0l30.7,30.71a8.09,8.09,0,0,1,0,11.44Z" transform="translate(0.03 0.03)"/><path class="cls-1" d="M120.41,137l62-62a20.89,20.89,0,0,0,0-29.5L137,0,85.52,51.42a20.75,20.75,0,0,0-6.11,14.75V96L75,91.51a20.89,20.89,0,0,0-29.5,0L0,137l45.45,45.46a20.87,20.87,0,0,0,29.5,0L79.38,178v29.77a20.75,20.75,0,0,0,6.11,14.75L137,274l45.46-45.45a20.89,20.89,0,0,0,0-29.5ZM92.17,66.2a8,8,0,0,1,2.38-5.72L137,18.05,173.4,54.48a8.12,8.12,0,0,1,0,11.45l-62,62-19.21-19.2ZM66,173.4a8.09,8.09,0,0,1-11.44,0L18.05,137l36.43-36.43a8.11,8.11,0,0,1,11.44,0L102.35,137Zm107.48,46.06L137,255.89,94.54,213.46a8.07,8.07,0,0,1-2.37-5.72V165.2L111.38,146l62,62a8.12,8.12,0,0,1,0,11.48h0Z" transform="translate(0.03 0.03)"/><path class="cls-2" d="M293.46,97.69h15.7V168h44v12.4h-59.7Z" transform="translate(0.03 0.03)"/><path class="cls-2" d="M360,148.34c0-21.25,12.75-33.77,31.52-33.77s31.64,12.52,31.64,33.77c0,21-12.63,33.52-31.64,33.52S360,169.35,360,148.34Zm48-.12c0-14.76-6.5-22.55-16.53-22.55S375,133.46,375,148.22s6.49,22.54,16.41,22.54S408,163.09,408,148.22ZM375.38,98h13.7v12.28h-13.7ZM394,98h13.69v12.28H394.05Z" transform="translate(0.03 0.03)"/><path class="cls-2" d="M426.87,116.22h15.94l8.49,24.68,8.39,24.55,8.5-24.55,8.62-24.68H492L468,180.33H451Z" transform="translate(0.03 0.03)"/><path class="cls-2" d="M495.82,148.34c0-20.78,12.75-33.77,31-33.77,17.35,0,30.34,12.28,30.34,34v1.18H510.69c.48,13.81,6.61,21.25,16.18,21.25,7.79,0,13.22-5,15.34-14.64H556.5c-2.84,16.06-13.69,25.5-29.75,25.5C508.33,181.86,495.82,169.23,495.82,148.34Zm15.47-7.56H542.1c-2-10-7.56-15.35-15.35-15.35s-13.58,5.43-15.46,15.35Z" transform="translate(0.03 0.03)"/><path class="cls-2" d="M568.54,97.69h15.12v82.64H568.54Z" transform="translate(0.03 0.03)"/><path class="cls-2" d="M596.41,97.69h15.11v82.64H596.41Z" transform="translate(0.03 0.03)"/><path class="cls-2" d="M247.37,219.3h6.46v34h-6.46Z" transform="translate(0.03 0.03)"/><path class="cls-2" d="M283.8,247.87a11.7,11.7,0,0,1-10.64,6c-8.64,0-14.52-6.22-14.52-17.54s6.27-17.63,15.64-17.63c8.21,0,14,4.76,15.3,13.21h-6.51c-1-5.24-4.42-8.06-8.79-8.06-5.54,0-9,4.28-9,12.48s3.55,12.44,9,12.44c4.67,0,8.11-3.06,9.13-8.84h-8.84v-5h15.11v18.41H283.8Z" transform="translate(0.03 0.03)"/><path class="cls-2" d="M295,219.3h7.43l7.33,12.58,7.29,12.53-.1-12.57V219.3h5.68v34h-7.48l-7.33-12.49-7.24-12.43.1,12.43,0,12.49h-5.68Z" transform="translate(0.03 0.03)"/><path class="cls-2" d="M328.08,219.3h6.46v34h-6.46Z" transform="translate(0.03 0.03)"/><path class="cls-2" d="M350.62,224.45H339V219.3H368.7v5.15H357.08v28.86h-6.46Z" transform="translate(0.03 0.03)"/><path class="cls-2" d="M373.17,219.3H398v5.15H379.63v8.84h13.64v5H379.63v9.91H398v5.06h-24.8Z" transform="translate(0.03 0.03)"/><path class="cls-2" d="M424.91,224.45H413.3V219.3H443v5.15H431.37v28.86h-6.46Z" transform="translate(0.03 0.03)"/><path class="cls-2" d="M447.46,219.3H454v13.94h15V219.3h6.46v34H469v-15H454v15h-6.46Z" transform="translate(0.03 0.03)"/><path class="cls-2" d="M480.89,219.3h24.82v5.15H487.35v8.84H501v5H487.35v9.91h18.36v5.06H480.89Z" transform="translate(0.03 0.03)"/><path class="cls-2" d="M547.5,247.87a11.72,11.72,0,0,1-10.64,6c-8.65,0-14.52-6.22-14.52-17.54s6.26-17.66,15.63-17.66c8.2,0,14,4.76,15.3,13.21h-6.5c-1-5.24-4.42-8.06-8.79-8.06-5.54,0-9,4.28-9,12.48s3.55,12.44,9,12.44c4.66,0,8.11-3.06,9.13-8.84h-8.84v-5h15.1v18.41H547.5Z" transform="translate(0.03 0.03)"/><path class="cls-2" d="M569.8,219.3h7.73l12.58,34H583l-2.73-7.82H566.6l-2.72,7.82h-6.66Zm-1.55,21.33h10.39l-.43-1.26-4.76-14-4.76,14Z" transform="translate(0.03 0.03)"/><path class="cls-2" d="M593.81,219.3h9.38L607,232l3.74,12.68L614.5,232l3.79-12.73h9.37v34h-6l.05-16.76.15-11-3.21,11L613.7,253.3h-6.07l-5-16.76-3.2-11,.14,11V253.3h-5.83Z" transform="translate(0.03 0.03)"/><path class="cls-2" d="M633.12,219.3H658v5.15H639.58v8.84h13.65v5H639.58v9.91H658v5.06H633.12Z" transform="translate(0.03 0.03)"/></svg>