<svg id="Layer_1" data-name="Layer 1" xmlns="http://www.w3.org/2000/svg" xmlns:xlink="http://www.w3.org/1999/xlink" viewBox="0 0 607.85 418.19"><defs><style>.cls-1,.cls-4{fill:none;}.cls-2{clip-path:url(#clip-path);}.cls-3{fill:#cca661;}.cls-4{stroke:#fff;stroke-miterlimit:2;stroke-width:0.53px;}.cls-5{fill:#e3cfaa;}.cls-6{clip-path:url(#clip-path-2);}.cls-7{fill:#0d3840;}</style><clipPath id="clip-path" transform="translate(-0.93 -155.63)"><rect class="cls-1" x="-44.91" y="-51.59" width="656.91" height="754.58"/></clipPath><clipPath id="clip-path-2" transform="translate(-0.93 -155.63)"><rect class="cls-1" x="-59.35" y="-239.07" width="865.89" height="994.63"/></clipPath></defs><g class="cls-2"><polygon class="cls-3" points="90.12 195.01 83.68 190.07 81.96 186.97 90.12 195.01"/><polygon class="cls-4" points="90.12 195.01 83.68 190.07 81.96 186.97 90.12 195.01"/><polygon class="cls-3" points="75.53 110.81 75.53 112.19 77.25 118.74 82.3 124.14 83.68 128.62 87.59 132.41 88.97 132.98 88.97 136.31 90.35 139.3 91.27 143.44 93.22 145.39 93.22 142.06 92.3 139.64 92.87 138.72 97.12 143.09 97.35 146.08 98.73 147.46 98.16 149.18 100.11 153.32 100.57 157.45 99.19 160.21 102.87 167.9 105.85 169.97 106.66 175.26 110.45 182.61 111.83 186.28 110.56 193.18 111.94 197.77 117.46 201.45 118.84 200.18 119.06 197.42 121.25 198 126.07 204.32 128.25 205.12 129.06 209.26 130.78 213.28 135.61 219.37 133.65 225.11 128.83 228.33 126.3 230.74 124.69 231.08 121.36 227.52 118.72 216.15 115.04 212.93 111.14 210.52 99.77 199.03 91.15 190.65 90 190.65 89.43 187.78 88.05 188.69 86.1 185.37 84.49 184.79 82.53 179.28 85.06 164.11 80.24 152.17 77.25 150.79 61.17 137.12 59.44 137.92 56.46 138.03 52.32 132.75 49.8 131.95 46.69 129.19 41.18 126.32 40.03 124.02 31.41 113.11 32.22 112.65 38.31 114.14 43.25 112.76 45.43 115.41 47.96 115.98 51.29 117.36 51.86 115.63 50.94 114.83 48.53 114.26 45.77 111.27 48.19 109.09 75.53 110.81"/><polygon class="cls-4" points="75.53 110.81 75.53 112.19 77.25 118.74 82.3 124.14 83.68 128.62 87.59 132.41 88.97 132.98 88.97 136.31 90.35 139.3 91.27 143.44 93.22 145.39 93.22 142.06 92.3 139.64 92.87 138.72 97.12 143.09 97.35 146.08 98.73 147.46 98.16 149.18 100.11 153.32 100.57 157.45 99.19 160.21 102.87 167.9 105.85 169.97 106.66 175.26 110.45 182.61 111.83 186.28 110.56 193.18 111.94 197.77 117.46 201.45 118.84 200.18 119.06 197.42 121.25 198 126.07 204.32 128.25 205.12 129.06 209.26 130.78 213.28 135.61 219.37 133.65 225.11 128.83 228.33 126.3 230.74 124.69 231.08 121.36 227.52 118.72 216.15 115.04 212.93 111.14 210.52 99.77 199.03 91.15 190.65 90 190.65 89.43 187.78 88.05 188.69 86.1 185.37 84.49 184.79 82.53 179.28 85.06 164.11 80.24 152.17 77.25 150.79 61.17 137.12 59.44 137.92 56.46 138.03 52.32 132.75 49.8 131.95 46.69 129.19 41.18 126.32 40.03 124.02 31.41 113.11 32.22 112.65 38.31 114.14 43.25 112.76 45.43 115.41 47.96 115.98 51.29 117.36 51.86 115.63 50.94 114.83 48.53 114.26 45.77 111.27 48.19 109.09 75.53 110.81"/><polygon class="cls-3" points="45.43 23.62 44.85 22.24 39.92 18.22 39.34 15.46 40.95 9.38 44.4 6.28 48.07 8.11 116.19 38.78 157.43 40.74 156.05 44.64 157.89 45.45 158.58 57.05 160.65 68.88 159.38 83.47 157.43 85.65 157.89 100.01 158.81 110.23 157.66 111.39 150.54 108.97 148.01 111.73 150.66 119.2 154.79 125.97 156.17 128.39 156.28 136.66 159.27 140.33 152.26 147.34 142.73 154.12 142.27 149.18 138.71 144.7 135.72 145.5 132.16 144.13 130.32 137.46 125.96 134.82 122.86 133.79 118.95 129.65 117.57 122.3 118.38 117.47 113.55 116.21 112.52 116.78 111.94 117.36 108.84 115.41 105.28 111.96 102.29 105.53 95.52 99.78 93.33 97.37 93.33 94.61 88.85 88.64 88.28 83.58 85.52 81.75 85.64 78.99 79.2 66.93 78.97 61.41 76.91 56.13 73.8 49.24 74.84 42.69 74.84 39.93 71.28 37.41 68.75 37.17 62.32 30.05 59.56 28.68 56.23 30.51 49.68 25.8 45.43 23.62"/><polygon class="cls-4" points="45.43 23.62 44.85 22.24 39.92 18.22 39.34 15.46 40.95 9.38 44.4 6.28 48.07 8.11 116.19 38.78 157.43 40.74 156.05 44.64 157.89 45.45 158.58 57.05 160.65 68.88 159.38 83.47 157.43 85.65 157.89 100.01 158.81 110.23 157.66 111.39 150.54 108.97 148.01 111.73 150.66 119.2 154.79 125.97 156.17 128.39 156.28 136.66 159.27 140.33 152.26 147.34 142.73 154.12 142.27 149.18 138.71 144.7 135.72 145.5 132.16 144.13 130.32 137.46 125.96 134.82 122.86 133.79 118.95 129.65 117.57 122.3 118.38 117.47 113.55 116.21 112.52 116.78 111.94 117.36 108.84 115.41 105.28 111.96 102.29 105.53 95.52 99.78 93.33 97.37 93.33 94.61 88.85 88.64 88.28 83.58 85.52 81.75 85.64 78.99 79.2 66.93 78.97 61.41 76.91 56.13 73.8 49.24 74.84 42.69 74.84 39.93 71.28 37.41 68.75 37.17 62.32 30.05 59.56 28.68 56.23 30.51 49.68 25.8 45.43 23.62"/><polygon class="cls-3" points="264.04 97.37 250.48 122.07 255.65 149.29 245.2 147.22 237.84 156.65 234.74 155.04 226.13 152.63 222.11 153.54 215.1 148.84 213.49 149.52 207.98 145.39 206.03 146.77 203.61 153.66 201.2 155.15 199.82 156.53 200.28 161.47 198.44 162.85 197.64 166.99 194.08 170.55 186.61 171.81 180.75 160.21 177.42 159.52 172.48 157.56 171.56 149.52 169.03 145.39 168.81 142.4 167.54 140.68 162.83 138.61 159.27 140.34 156.28 136.66 156.17 128.39 154.79 125.97 150.66 119.2 148.01 111.73 150.54 108.97 157.66 111.39 158.81 110.23 157.89 100.01 157.43 85.65 159.38 83.47 160.65 68.88 158.58 57.05 157.89 45.45 156.06 44.64 157.43 40.74 169.56 41.2 169.38 39.01 169.61 31.78 202.24 32.47 207.4 38.33 211.88 42.46 219.12 49.81 224.06 54.52 232.22 60.5 234.4 67.04 236.7 70.37 237.04 77.27 241.52 84.39 244.85 86 249.22 89.9 252.55 90.25 256.8 93.58 259.33 94.15 264.04 97.37"/><polygon class="cls-4" points="264.04 97.37 250.48 122.07 255.65 149.29 245.2 147.22 237.84 156.65 234.74 155.04 226.13 152.63 222.11 153.54 215.1 148.84 213.49 149.52 207.98 145.39 206.03 146.77 203.61 153.66 201.2 155.15 199.82 156.53 200.28 161.47 198.44 162.85 197.64 166.99 194.08 170.55 186.61 171.81 180.75 160.21 177.42 159.52 172.48 157.56 171.56 149.52 169.03 145.39 168.81 142.4 167.54 140.68 162.83 138.61 159.27 140.34 156.28 136.66 156.17 128.39 154.79 125.97 150.66 119.2 148.01 111.73 150.54 108.97 157.66 111.39 158.81 110.23 157.89 100.01 157.43 85.65 159.38 83.47 160.65 68.88 158.58 57.05 157.89 45.45 156.06 44.64 157.43 40.74 169.56 41.2 169.38 39.01 169.61 31.78 202.24 32.47 207.4 38.33 211.88 42.46 219.12 49.81 224.06 54.52 232.22 60.5 234.4 67.04 236.7 70.37 237.04 77.27 241.52 84.39 244.85 86 249.22 89.9 252.55 90.25 256.8 93.58 259.33 94.15 264.04 97.37"/><polygon class="cls-5" points="332.96 125.17 327.91 117.13 323.66 114.26 322.85 111.73 315.5 95.53 308.03 87.38 299.07 80.03 292.18 79.79 283.91 77.61 281.38 79.91 278.63 80.14 275.18 82.44 272.65 89.1 267.02 97.03 264.04 97.37 250.48 122.07 255.65 149.3 263.23 158.37 261.51 164.46 261.62 171.12 258.87 177.44 259.33 182.38 263.46 186.74 263.46 189.04 271.85 193.29 275.3 186.17 279.66 184.33 288.51 185.59 296.09 190.88 296.66 192.49 301.26 192.37 304.93 192.72 310.68 197.89 312.86 197.54 313.66 191.68 314.7 188.92 313.09 187.32 313.55 185.13 320.21 182.61 321.36 180.66 319.52 177.44 313.43 171.35 312.63 166.07 309.18 161.81 307.34 160.67 305.39 156.88 312.75 150.1 314.35 150.9 317.34 147.57 318.49 143.44 317.11 141.6 314.93 141.6 313.43 139.07 314.01 136.89 320.32 133.33 321.82 128.27 325.15 125.74 328.71 128.5 332.96 125.17"/><polygon class="cls-4" points="332.96 125.17 327.91 117.13 323.66 114.26 322.85 111.73 315.5 95.53 308.03 87.38 299.07 80.03 292.18 79.79 283.91 77.61 281.38 79.91 278.63 80.14 275.18 82.44 272.65 89.1 267.02 97.03 264.04 97.37 250.48 122.07 255.65 149.3 263.23 158.37 261.51 164.46 261.62 171.12 258.87 177.44 259.33 182.38 263.46 186.74 263.46 189.04 271.85 193.29 275.3 186.17 279.66 184.33 288.51 185.59 296.09 190.88 296.66 192.49 301.26 192.37 304.93 192.72 310.68 197.89 312.86 197.54 313.66 191.68 314.7 188.92 313.09 187.32 313.55 185.13 320.21 182.61 321.36 180.66 319.52 177.44 313.43 171.35 312.63 166.07 309.18 161.81 307.34 160.67 305.39 156.88 312.75 150.1 314.35 150.9 317.34 147.57 318.49 143.44 317.11 141.6 314.93 141.6 313.43 139.07 314.01 136.89 320.32 133.33 321.82 128.27 325.15 125.74 328.71 128.5 332.96 125.17"/><polygon class="cls-3" points="0.63 0.3 46.69 1.56 44.4 6.28 40.95 9.38 39.34 15.46 39.92 18.22 44.85 22.24 45.43 23.62 44.97 23.27 43.02 22.93 40.38 37.18 40.95 40.51 42.33 43.04 43.59 61.53 46.69 67.39 49.56 70.14 57.49 78.88 62.32 87.15 62.66 89.67 66.8 91.05 69.33 100.01 73.8 102.77 74.72 107.48 75.53 109.43 75.53 110.81 48.19 109.09 48.76 106.56 49.45 102.43 51.4 98.29 45.77 90.82 41.64 86 32.68 75.77 28.89 72.9 21.53 66.24 21.53 64.06 19.93 61.76 20.04 54.18 16.25 50.39 15.56 40.74 12.23 37.98 11.89 32.47 8.55 26.95 7.18 24.31 6.95 21.55 8.67 18.11 7.29 15.46 4.88 14.09 3.38 8.57 0.28 3.06 0.86 0.88 0.51 0.19 0.63 0.3"/><polygon class="cls-4" points="0.63 0.3 46.69 1.56 44.4 6.28 40.95 9.38 39.34 15.46 39.92 18.22 44.85 22.24 45.43 23.62 44.97 23.27 43.02 22.93 40.38 37.18 40.95 40.51 42.33 43.04 43.59 61.53 46.69 67.39 49.56 70.14 57.49 78.88 62.32 87.15 62.66 89.67 66.8 91.05 69.33 100.01 73.8 102.77 74.72 107.48 75.53 109.43 75.53 110.81 48.19 109.09 48.76 106.56 49.45 102.43 51.4 98.29 45.77 90.82 41.64 86 32.68 75.77 28.89 72.9 21.53 66.24 21.53 64.06 19.93 61.76 20.04 54.18 16.25 50.39 15.56 40.74 12.23 37.98 11.89 32.47 8.55 26.95 7.18 24.31 6.95 21.55 8.67 18.11 7.29 15.46 4.88 14.09 3.38 8.57 0.28 3.06 0.86 0.88 0.51 0.19 0.63 0.3"/><polygon class="cls-3" points="312.86 197.54 313.66 191.68 314.69 188.92 313.09 187.32 313.55 185.13 320.21 182.61 321.36 180.66 319.52 177.44 313.43 171.35 312.63 166.07 309.18 161.82 307.34 160.67 305.39 156.88 312.75 150.1 314.35 150.9 317.34 147.57 318.49 143.44 317.11 141.6 314.93 141.6 313.43 139.07 314.01 136.89 320.32 133.33 321.82 128.27 325.15 125.74 328.71 128.5 332.96 125.17 334.23 127.12 331.01 131.26 331.58 133.44 334.34 134.59 334.69 139.19 334.8 144.7 337.56 146.31 338.02 149.64 341.69 151.02 342.04 156.19 345.37 157.91 346.98 162.05 348.93 162.39 352.49 164.69 356.63 163.54 358 164.92 358.12 172.04 360.65 176.75 358.58 180.08 351.69 185.82 349.73 185.02 347.78 185.48 346.75 192.03 343.99 192.6 337.67 196.16 336.29 198.23 338.48 200.3 338.13 206.96 340.54 211.67 336.87 215.58 333.54 216.15 332.16 218.11 332.16 223.27 329.4 223.27 328.14 227.41 325.38 227.18 322.62 228.44 320.9 227.3 321.13 216.5 318.26 212.7 318.49 206.39 312.86 197.54"/><polygon class="cls-4" points="312.86 197.54 313.66 191.68 314.69 188.92 313.09 187.32 313.55 185.13 320.21 182.61 321.36 180.66 319.52 177.44 313.43 171.35 312.63 166.07 309.18 161.82 307.34 160.67 305.39 156.88 312.75 150.1 314.35 150.9 317.34 147.57 318.49 143.44 317.11 141.6 314.93 141.6 313.43 139.07 314.01 136.89 320.32 133.33 321.82 128.27 325.15 125.74 328.71 128.5 332.96 125.17 334.23 127.12 331.01 131.26 331.58 133.44 334.34 134.59 334.69 139.19 334.8 144.7 337.56 146.31 338.02 149.64 341.69 151.02 342.04 156.19 345.37 157.91 346.98 162.05 348.93 162.39 352.49 164.69 356.63 163.54 358 164.92 358.12 172.04 360.65 176.75 358.58 180.08 351.69 185.82 349.73 185.02 347.78 185.48 346.75 192.03 343.99 192.6 337.67 196.16 336.29 198.23 338.48 200.3 338.13 206.96 340.54 211.67 336.87 215.58 333.54 216.15 332.16 218.11 332.16 223.27 329.4 223.27 328.14 227.41 325.38 227.18 322.62 228.44 320.9 227.3 321.13 216.5 318.26 212.7 318.49 206.39 312.86 197.54"/><polygon class="cls-5" points="385.57 164.8 387.07 166.18 383.62 178.24 380.29 184.79 377.19 199.15 376.61 198.92 379.25 184.79 381.9 179.16 380.64 178.24 379.71 180.08 377.3 179.28 375.35 181.23 376.15 183.18 375.35 186.97 377.53 188.92 376.04 191.45 376.27 195.82 374.66 198.57 374.89 199.38 376.84 200.53 375.81 205.47 375.69 219.02 376.38 230.63 376.38 235.56 373.74 241.31 375.24 247.05 366.5 244.53 364.32 245.9 359.96 245.67 353.64 247.05 346.17 244.18 343.42 240.05 341.23 239.47 338.7 241.08 329.17 236.6 331.7 232.92 331.7 231.31 328.14 227.41 329.4 223.27 332.16 223.27 332.16 218.11 333.54 216.15 336.87 215.58 340.54 211.67 338.13 206.96 338.48 200.3 336.29 198.23 337.67 196.16 343.99 192.6 346.75 192.03 347.78 185.48 349.73 185.02 351.69 185.82 358.58 180.08 360.65 176.75 358.12 172.04 358 164.92 356.63 163.54 352.49 164.69 348.93 162.39 346.98 162.05 345.37 157.91 342.04 156.19 341.69 151.02 338.02 149.64 337.56 146.31 334.8 144.7 334.69 139.19 334.34 134.59 331.58 133.44 331.01 131.26 334.23 127.12 337.56 128.39 339.05 130.8 338.25 133.9 340.43 138.03 340.2 140.79 344.91 149.3 347.55 155.61 353.3 156.88 356.63 159.63 362.71 160.67 367.08 163.66 377.07 164.46 381.55 166.87 385.57 164.8"/><polygon class="cls-4" points="385.57 164.8 387.07 166.18 383.62 178.24 380.29 184.79 377.19 199.15 376.61 198.92 379.25 184.79 381.9 179.16 380.64 178.24 379.71 180.08 377.3 179.28 375.35 181.23 376.15 183.18 375.35 186.97 377.53 188.92 376.04 191.45 376.27 195.82 374.66 198.57 374.89 199.38 376.84 200.53 375.81 205.47 375.69 219.02 376.38 230.63 376.38 235.56 373.74 241.31 375.24 247.05 366.5 244.53 364.32 245.9 359.96 245.67 353.64 247.05 346.17 244.18 343.42 240.05 341.23 239.47 338.7 241.08 329.17 236.6 331.7 232.92 331.7 231.31 328.14 227.41 329.4 223.27 332.16 223.27 332.16 218.11 333.54 216.15 336.87 215.58 340.54 211.67 338.13 206.96 338.48 200.3 336.29 198.23 337.67 196.16 343.99 192.6 346.75 192.03 347.78 185.48 349.73 185.02 351.69 185.82 358.58 180.08 360.65 176.75 358.12 172.04 358 164.92 356.63 163.54 352.49 164.69 348.93 162.39 346.98 162.05 345.37 157.91 342.04 156.19 341.69 151.02 338.02 149.64 337.56 146.31 334.8 144.7 334.69 139.19 334.34 134.59 331.58 133.44 331.01 131.26 334.23 127.12 337.56 128.39 339.05 130.8 338.25 133.9 340.43 138.03 340.2 140.79 344.91 149.3 347.55 155.61 353.3 156.88 356.63 159.63 362.71 160.67 367.08 163.66 377.07 164.46 381.55 166.87 385.57 164.8"/><polygon class="cls-3" points="457.71 337.34 451.86 340.21 447.38 338.49 442.67 331.49 439.34 330.68 434.63 327.69 421.65 327 418.32 324.25 411.88 316.55 406.82 305.3 399.59 295.42 388.9 280.59 384.2 269.22 383.28 268.08 380.06 264.51 378.11 257.96 383.39 263.02 383.85 267.27 383.97 268.19 385.23 268.08 385.81 265.09 383.85 262.56 377.65 256.24 375.24 247.05 366.5 244.53 364.32 245.9 359.96 245.67 363.75 249.7 363.63 251.42 360.65 255.32 362.03 259.12 359.61 262.79 361.22 264.75 361.57 268.53 363.52 272.9 364.89 273.7 366.74 273.13 369.15 275.08 367.77 280.83 363.87 280.83 361.91 282.78 362.72 285.31 361.8 288.64 362.37 290.48 363.17 291.39 368.92 286.91 370.75 284.96 372.13 286.34 371.68 289.44 373.63 288.29 375.12 282.09 376.85 281.29 378.22 282.66 378.45 284.39 382.47 286.8 381.67 288.98 378.34 289.56 378.34 293.46 381.67 295.88 385.81 293.69 390.17 295.76 390.97 296.68 388.1 300.82 388.1 305.75 385.34 308.63 388.45 313.22 392.93 315.98 393.39 316.78 389.6 318.73 391.32 324.71 388.56 325.28 388.56 328.04 393.04 330.22 393.5 332.52 397.64 331.95 398.79 331.49 400.97 333.44 402.69 331.49 402.92 329.88 406.48 331.02 413.49 339.41 419.81 340.79 421.53 344.7 419.92 349.06 420.5 351.24 423.6 354.23 434.05 349.75 435.08 350.79 434.86 353.89 438.76 356.53 439.68 359.63 447.61 360.55 464.84 360.44 468.51 356.3 469.66 354.69 468.51 352.97 468.51 352.51 464.95 347.8 461.74 346.08 458.98 343.78 459.32 341.48 457.71 337.34"/><polygon class="cls-4" points="457.71 337.34 451.86 340.21 447.38 338.49 442.67 331.49 439.34 330.68 434.63 327.69 421.65 327 418.32 324.25 411.88 316.55 406.82 305.3 399.59 295.42 388.9 280.59 384.2 269.22 383.28 268.08 380.06 264.51 378.11 257.96 383.39 263.02 383.85 267.27 383.97 268.19 385.23 268.08 385.81 265.09 383.85 262.56 377.65 256.24 375.24 247.05 366.5 244.53 364.32 245.9 359.96 245.67 363.75 249.7 363.63 251.42 360.65 255.32 362.03 259.12 359.61 262.79 361.22 264.75 361.57 268.53 363.52 272.9 364.89 273.7 366.74 273.13 369.15 275.08 367.77 280.83 363.87 280.83 361.91 282.78 362.72 285.31 361.8 288.64 362.37 290.48 363.17 291.39 368.92 286.91 370.75 284.96 372.13 286.34 371.68 289.44 373.63 288.29 375.12 282.09 376.85 281.29 378.22 282.66 378.45 284.39 382.47 286.8 381.67 288.98 378.34 289.56 378.34 293.46 381.67 295.88 385.81 293.69 390.17 295.76 390.97 296.68 388.1 300.82 388.1 305.75 385.34 308.63 388.45 313.22 392.93 315.98 393.39 316.78 389.6 318.73 391.32 324.71 388.56 325.28 388.56 328.04 393.04 330.22 393.5 332.52 397.64 331.95 398.79 331.49 400.97 333.44 402.69 331.49 402.92 329.88 406.48 331.02 413.49 339.41 419.81 340.79 421.53 344.7 419.92 349.06 420.5 351.24 423.6 354.23 434.05 349.75 435.08 350.79 434.86 353.89 438.76 356.53 439.68 359.63 447.61 360.55 464.84 360.44 468.51 356.3 469.66 354.69 468.51 352.97 468.51 352.51 464.95 347.8 461.74 346.08 458.98 343.78 459.32 341.48 457.71 337.34"/><polygon class="cls-3" points="328.14 227.41 331.7 231.31 331.7 232.92 329.17 236.6 338.7 241.08 341.23 239.47 343.42 240.05 346.17 244.18 353.64 247.05 359.96 245.67 363.75 249.7 363.63 251.42 360.65 255.32 362.03 259.12 359.61 262.79 361.22 264.74 361.57 268.53 359.38 273.01 355.25 273.59 353.3 271.87 349.96 270.49 348.35 266.47 345.83 263.71 341.12 267.62 336.75 265.78 334.57 267.73 321.59 263.13 317.45 266.7 314.93 265.66 309.3 261.07 306.31 261.07 303.55 258.88 298.73 258.42 301.83 254.41 301.72 250.27 302.87 244.53 301.72 241.77 298.73 241.54 294.82 244.87 293.79 244.87 284.6 235.34 284.25 230.97 282.88 228.21 285.29 224.65 286.9 224.31 294.94 218.1 303.9 210.06 306.89 205.58 312.86 197.54 318.49 206.39 318.26 212.7 321.13 216.5 320.9 227.3 322.62 228.44 325.38 227.18 328.14 227.41"/><polygon class="cls-4" points="328.14 227.41 331.7 231.31 331.7 232.92 329.17 236.6 338.7 241.08 341.23 239.47 343.42 240.05 346.17 244.18 353.64 247.05 359.96 245.67 363.75 249.7 363.63 251.42 360.65 255.32 362.03 259.12 359.61 262.79 361.22 264.74 361.57 268.53 359.38 273.01 355.25 273.59 353.3 271.87 349.96 270.49 348.35 266.47 345.83 263.71 341.12 267.62 336.75 265.78 334.57 267.73 321.59 263.13 317.45 266.7 314.93 265.66 309.3 261.07 306.31 261.07 303.55 258.88 298.73 258.42 301.83 254.41 301.72 250.27 302.87 244.53 301.72 241.77 298.73 241.54 294.82 244.87 293.79 244.87 284.6 235.34 284.25 230.97 282.88 228.21 285.29 224.65 286.9 224.31 294.94 218.1 303.9 210.06 306.89 205.58 312.86 197.54 318.49 206.39 318.26 212.7 321.13 216.5 320.9 227.3 322.62 228.44 325.38 227.18 328.14 227.41"/><polygon class="cls-5" points="275.29 186.17 278.4 194.78 277.82 199.49 262.2 200.53 251.28 208.69 250.83 218.1 246.12 223.04 244.28 229.13 243.25 230.74 241.06 246.25 240.83 247.86 248.3 245.1 246.92 242 248.41 238.21 250.71 239.81 249.33 247.28 250.48 248.66 253.24 242.23 254.39 243.26 254.16 252.45 255.54 253.26 259.9 247.74 261.51 244.99 265.42 248.66 265.65 250.61 256.69 260.15 257.26 262.56 256.23 265.32 252.89 266.47 252.66 272.55 264.38 276 265.99 276 266.45 271.64 271.16 271.29 274.72 268.31 275.29 265.77 273.34 263.6 271.5 257.51 273.8 255.32 275.64 255.1 276.21 253.37 275.18 250.61 275.52 249.01 278.86 247.74 281.61 244.99 287.13 249.47 287.82 251.65 290.69 255.44 291.15 254.87 298.61 258.42 298.73 258.42 301.83 254.41 301.72 250.27 302.87 244.53 301.72 241.77 298.73 241.54 294.82 244.87 293.79 244.87 284.6 235.34 284.26 230.97 282.88 228.21 285.29 224.65 286.9 224.31 294.94 218.1 303.9 210.06 306.89 205.58 312.86 197.54 310.68 197.89 304.93 192.71 301.26 192.37 296.66 192.49 296.09 190.88 288.51 185.6 279.66 184.33 275.29 186.17"/><polygon class="cls-4" points="275.29 186.17 278.4 194.78 277.82 199.49 262.2 200.53 251.28 208.69 250.83 218.1 246.12 223.04 244.28 229.13 243.25 230.74 241.06 246.25 240.83 247.86 248.3 245.1 246.92 242 248.41 238.21 250.71 239.81 249.33 247.28 250.48 248.66 253.24 242.23 254.39 243.26 254.16 252.45 255.54 253.26 259.9 247.74 261.51 244.99 265.42 248.66 265.65 250.61 256.69 260.15 257.26 262.56 256.23 265.32 252.89 266.47 252.66 272.55 264.38 276 265.99 276 266.45 271.64 271.16 271.29 274.72 268.31 275.29 265.77 273.34 263.6 271.5 257.51 273.8 255.32 275.64 255.1 276.21 253.37 275.18 250.61 275.52 249.01 278.86 247.74 281.61 244.99 287.13 249.47 287.82 251.65 290.69 255.44 291.15 254.87 298.61 258.42 298.73 258.42 301.83 254.41 301.72 250.27 302.87 244.53 301.72 241.77 298.73 241.54 294.82 244.87 293.79 244.87 284.6 235.34 284.26 230.97 282.88 228.21 285.29 224.65 286.9 224.31 294.94 218.1 303.9 210.06 306.89 205.58 312.86 197.54 310.68 197.89 304.93 192.71 301.26 192.37 296.66 192.49 296.09 190.88 288.51 185.6 279.66 184.33 275.29 186.17"/><polygon class="cls-3" points="186.61 171.81 194.08 170.54 197.64 166.99 198.44 162.85 200.28 161.47 199.82 156.53 201.2 155.15 203.61 153.66 206.03 146.77 207.98 145.39 213.49 149.52 215.1 148.84 222.11 153.54 226.13 152.63 234.74 155.04 237.84 156.65 245.2 147.23 255.65 149.29 263.23 158.37 261.51 164.46 261.63 171.12 258.87 177.44 259.33 182.38 263.46 186.74 263.46 189.04 271.85 193.29 275.29 186.17 278.4 194.78 277.82 199.5 262.2 200.53 251.28 208.69 250.83 218.11 246.12 223.04 244.28 229.13 243.24 230.74 241.06 246.25 238.88 244.87 236.7 245.79 233.37 242.46 233.37 241.31 230.38 240.74 227.85 241.31 226.82 240.85 227.51 238.44 228.54 235.22 225.32 232.12 217.86 230.17 212.23 223.96 211.66 218.91 208.78 212.93 207.98 206.04 201.55 200.3 197.99 202.48 195.46 200.87 193.73 194.78 187.65 188.81 184.89 180.08 186.61 171.81"/><polygon class="cls-4" points="186.61 171.81 194.08 170.54 197.64 166.99 198.44 162.85 200.28 161.47 199.82 156.53 201.2 155.15 203.61 153.66 206.03 146.77 207.98 145.39 213.49 149.52 215.1 148.84 222.11 153.54 226.13 152.63 234.74 155.04 237.84 156.65 245.2 147.23 255.65 149.29 263.23 158.37 261.51 164.46 261.63 171.12 258.87 177.44 259.33 182.38 263.46 186.74 263.46 189.04 271.85 193.29 275.29 186.17 278.4 194.78 277.82 199.5 262.2 200.53 251.28 208.69 250.83 218.11 246.12 223.04 244.28 229.13 243.24 230.74 241.06 246.25 238.88 244.87 236.7 245.79 233.37 242.46 233.37 241.31 230.38 240.74 227.85 241.31 226.82 240.85 227.51 238.44 228.54 235.22 225.32 232.12 217.86 230.17 212.23 223.96 211.66 218.91 208.78 212.93 207.98 206.04 201.55 200.3 197.99 202.48 195.46 200.87 193.73 194.78 187.65 188.81 184.89 180.08 186.61 171.81"/><polygon class="cls-3" points="213.84 242.69 211.08 242.11 207.4 236.6 205.11 234.42 205.68 233.04 192.93 219.6 186.73 209.83 184.54 205.93 178.69 203.05 175.35 196.39 171.68 196.39 167.54 192.03 167.2 188.93 165.59 185.82 165.59 184.1 160.07 180.54 156.05 177.55 152.15 173.76 150.31 171.81 148.93 173.76 141.7 169.74 140.66 169.51 140.66 167.56 138.59 163.42 139.97 159.52 142.96 155.84 142.73 154.12 152.26 147.34 159.27 140.34 162.83 138.61 167.54 140.68 168.81 142.4 169.03 145.39 171.56 149.52 172.48 157.56 177.42 159.52 180.75 160.21 186.61 171.81 184.89 180.08 187.65 188.81 193.73 194.78 195.46 200.87 197.99 202.48 201.54 200.3 207.98 206.04 208.78 212.93 211.66 218.91 212.23 223.96 217.86 230.17 216.71 231.54 217.05 233.96 214.53 236.6 216.59 240.05 216.02 241.77 213.84 242.69"/><polygon class="cls-4" points="213.84 242.69 211.08 242.11 207.4 236.6 205.11 234.42 205.68 233.04 192.93 219.6 186.73 209.83 184.54 205.93 178.69 203.05 175.35 196.39 171.68 196.39 167.54 192.03 167.2 188.93 165.59 185.82 165.59 184.1 160.07 180.54 156.05 177.55 152.15 173.76 150.31 171.81 148.93 173.76 141.7 169.74 140.66 169.51 140.66 167.56 138.59 163.42 139.97 159.52 142.96 155.84 142.73 154.12 152.26 147.34 159.27 140.34 162.83 138.61 167.54 140.68 168.81 142.4 169.03 145.39 171.56 149.52 172.48 157.56 177.42 159.52 180.75 160.21 186.61 171.81 184.89 180.08 187.65 188.81 193.73 194.78 195.46 200.87 197.99 202.48 201.54 200.3 207.98 206.04 208.78 212.93 211.66 218.91 212.23 223.96 217.86 230.17 216.71 231.54 217.05 233.96 214.53 236.6 216.59 240.05 216.02 241.77 213.84 242.69"/><polygon class="cls-3" points="213.84 242.69 216.02 241.77 216.59 240.05 214.53 236.6 217.05 233.96 216.71 231.54 217.86 230.17 225.32 232.12 228.54 235.22 227.51 238.44 226.82 240.85 227.85 241.31 230.38 240.74 233.37 241.31 233.37 242.46 236.7 245.79 238.88 244.87 241.06 246.25 240.83 247.86 239.34 252.91 240.95 256.36 243.93 259.92 243.01 265.43 247.15 269.57 243.01 273.48 241.87 273.7 240.6 282.89 240.37 283.35 234.51 278.87 230.38 276.57 223.03 279.22 220.5 284.5 216.36 281.74 214.75 281.29 215.79 279.11 219.7 275.88 220.96 272.1 221.76 266.58 217.05 262.91 212.8 252.91 213.26 250.61 215.9 253.03 216.71 252.22 213.49 247.4 213.84 242.69"/><polygon class="cls-4" points="213.84 242.69 216.02 241.77 216.59 240.05 214.53 236.6 217.05 233.96 216.71 231.54 217.86 230.17 225.32 232.12 228.54 235.22 227.51 238.44 226.82 240.85 227.85 241.31 230.38 240.74 233.37 241.31 233.37 242.46 236.7 245.79 238.88 244.87 241.06 246.25 240.83 247.86 239.34 252.91 240.95 256.36 243.93 259.92 243.01 265.43 247.15 269.57 243.01 273.48 241.87 273.7 240.6 282.89 240.37 283.35 234.51 278.87 230.38 276.57 223.03 279.22 220.5 284.5 216.36 281.74 214.75 281.29 215.79 279.11 219.7 275.88 220.96 272.1 221.76 266.58 217.05 262.91 212.8 252.91 213.26 250.61 215.9 253.03 216.71 252.22 213.49 247.4 213.84 242.69"/><polygon class="cls-3" points="233.37 318.73 236.81 315.18 239 315.18 244.16 310.92 246.46 312.65 249.56 313.45 253.12 311.38 256.11 314.48 256.91 324.13 258.41 323.56 261.05 321.37 262.2 322.18 265.53 322.64 268.29 318.73 275.18 316.78 276.21 313.22 275.41 312.07 273 311.85 270.93 307.13 272.54 303.34 271.96 302.19 268.4 301.96 266.45 301.04 266.22 299.43 267.71 297.25 271.62 297.25 274.37 295.3 279.08 293.58 286.78 291.05 288.74 288.06 286.9 282.2 291.84 274.62 295.05 272.44 297.35 270.26 296.43 266.69 297.81 264.75 297.46 260.03 298.73 258.42 298.61 258.42 291.15 254.86 290.69 255.44 283.8 263.25 279.55 262.1 276.21 261.07 275.64 255.1 273.8 255.32 271.5 257.51 273.34 263.6 275.29 265.78 274.72 268.3 271.16 271.29 266.45 271.64 265.99 276 264.38 276 252.66 272.55 252.89 266.47 256.23 265.32 257.26 262.56 256.69 260.15 265.65 250.61 265.42 248.66 261.51 244.99 259.9 247.74 255.53 253.25 254.16 252.45 254.39 243.26 253.24 242.23 250.48 248.66 249.33 247.28 250.71 239.81 248.41 238.21 246.92 242 248.3 245.1 240.83 247.86 239.34 252.91 240.95 256.36 243.93 259.92 243.01 265.43 247.15 269.57 243.01 273.48 241.87 273.7 240.6 282.89 240.37 283.35 234.51 278.87 230.38 276.57 223.03 279.22 220.5 284.5 219.35 287.26 215.33 288.4 211.54 289.78 212.34 292.31 214.87 299.43 226.36 315.29 233.37 318.73"/><polygon class="cls-4" points="233.37 318.73 236.81 315.18 239 315.18 244.16 310.92 246.46 312.65 249.56 313.45 253.12 311.38 256.11 314.48 256.91 324.13 258.41 323.56 261.05 321.37 262.2 322.18 265.53 322.64 268.29 318.73 275.18 316.78 276.21 313.22 275.41 312.07 273 311.85 270.93 307.13 272.54 303.34 271.96 302.19 268.4 301.96 266.45 301.04 266.22 299.43 267.71 297.25 271.62 297.25 274.37 295.3 279.08 293.58 286.78 291.05 288.74 288.06 286.9 282.2 291.84 274.62 295.05 272.44 297.35 270.26 296.43 266.69 297.81 264.75 297.46 260.03 298.73 258.42 298.61 258.42 291.15 254.86 290.69 255.44 283.8 263.25 279.55 262.1 276.21 261.07 275.64 255.1 273.8 255.32 271.5 257.51 273.34 263.6 275.29 265.78 274.72 268.3 271.16 271.29 266.45 271.64 265.99 276 264.38 276 252.66 272.55 252.89 266.47 256.23 265.32 257.26 262.56 256.69 260.15 265.65 250.61 265.42 248.66 261.51 244.99 259.9 247.74 255.53 253.25 254.16 252.45 254.39 243.26 253.24 242.23 250.48 248.66 249.33 247.28 250.71 239.81 248.41 238.21 246.92 242 248.3 245.1 240.83 247.86 239.34 252.91 240.95 256.36 243.93 259.92 243.01 265.43 247.15 269.57 243.01 273.48 241.87 273.7 240.6 282.89 240.37 283.35 234.51 278.87 230.38 276.57 223.03 279.22 220.5 284.5 219.35 287.26 215.33 288.4 211.54 289.78 212.34 292.31 214.87 299.43 226.36 315.29 233.37 318.73"/><polygon class="cls-3" points="286.78 291.05 288.74 288.06 286.9 282.2 291.84 274.62 295.05 272.44 297.35 270.26 296.43 266.69 297.81 264.75 297.46 260.04 298.73 258.42 303.55 258.88 306.31 261.07 309.3 261.07 314.93 265.66 317.45 266.69 321.59 263.13 334.57 267.73 336.18 271.29 335.03 273.25 330.89 273.82 329.97 275.43 327.45 278.75 321.13 279.45 318.15 284.62 320.1 287.14 324 296.79 322.16 300.36 319.75 302.3 316.42 300.93 313.09 302.08 310.91 299.9 307.46 298.29 302.87 299.67 301.37 298.86 299.99 294.5 297.81 292.89 295.29 295.07 291.72 295.64 289.54 294.84 289.31 292.89 286.78 291.05"/><polygon class="cls-4" points="286.78 291.05 288.74 288.06 286.9 282.2 291.84 274.62 295.05 272.44 297.35 270.26 296.43 266.69 297.81 264.75 297.46 260.04 298.73 258.42 303.55 258.88 306.31 261.07 309.3 261.07 314.93 265.66 317.45 266.69 321.59 263.13 334.57 267.73 336.18 271.29 335.03 273.25 330.89 273.82 329.97 275.43 327.45 278.75 321.13 279.45 318.15 284.62 320.1 287.14 324 296.79 322.16 300.36 319.75 302.3 316.42 300.93 313.09 302.08 310.91 299.9 307.46 298.29 302.87 299.67 301.37 298.86 299.99 294.5 297.81 292.89 295.29 295.07 291.72 295.64 289.54 294.84 289.31 292.89 286.78 291.05"/><polygon class="cls-3" points="290.69 255.44 283.8 263.25 279.55 262.1 276.21 261.07 275.64 255.1 276.21 253.37 275.18 250.61 275.52 249 278.86 247.74 281.61 244.99 287.13 249.47 287.82 251.65 290.69 255.44"/><polygon class="cls-4" points="290.69 255.44 283.8 263.25 279.55 262.1 276.21 261.07 275.64 255.1 276.21 253.37 275.18 250.61 275.52 249 278.86 247.74 281.61 244.99 287.13 249.47 287.82 251.65 290.69 255.44"/><polygon class="cls-3" points="328.14 301.5 331.47 297.25 331.7 295.53 334.23 294.73 334.8 292.2 334.8 288.98 339.05 286.57 339.86 285.54 339.86 282.44 344.33 278.07 345.25 273.93 350.54 273.25 349.96 270.49 348.35 266.47 345.83 263.71 341.12 267.62 336.75 265.77 334.57 267.73 336.18 271.29 335.03 273.25 330.89 273.82 329.97 275.43 327.45 278.75 321.13 279.45 318.14 284.62 320.1 287.14 324 296.79 328.14 301.5"/><polygon class="cls-4" points="328.14 301.5 331.47 297.25 331.7 295.53 334.23 294.73 334.8 292.2 334.8 288.98 339.05 286.57 339.86 285.54 339.86 282.44 344.33 278.07 345.25 273.93 350.54 273.25 349.96 270.49 348.35 266.47 345.83 263.71 341.12 267.62 336.75 265.77 334.57 267.73 336.18 271.29 335.03 273.25 330.89 273.82 329.97 275.43 327.45 278.75 321.13 279.45 318.14 284.62 320.1 287.14 324 296.79 328.14 301.5"/><polygon class="cls-3" points="361.57 268.53 363.52 272.9 364.89 273.7 366.74 273.13 369.15 275.08 367.77 280.83 363.87 280.83 361.91 282.78 362.71 285.31 361.8 288.64 362.37 290.48 363.17 291.39 368.92 286.91 370.75 284.96 372.13 286.34 371.68 289.44 369.72 292.77 370.87 297.13 368.46 301.27 369.38 306.56 366.05 307.01 365.24 308.16 359.84 308.51 359.96 306.9 358.58 303.92 354.67 303.92 352.84 303.34 352.84 300.01 351.46 299.21 346.75 300.36 345.02 304.14 334.23 294.72 334.8 292.2 334.8 288.98 339.05 286.57 339.86 285.54 339.86 282.44 344.33 278.07 345.25 273.93 350.54 273.25 349.96 270.49 353.3 271.87 355.25 273.59 359.38 273.01 361.57 268.53"/><polygon class="cls-4" points="361.57 268.53 363.52 272.9 364.89 273.7 366.74 273.13 369.15 275.08 367.77 280.83 363.87 280.83 361.91 282.78 362.71 285.31 361.8 288.64 362.37 290.48 363.17 291.39 368.92 286.91 370.75 284.96 372.13 286.34 371.68 289.44 369.72 292.77 370.87 297.13 368.46 301.27 369.38 306.56 366.05 307.01 365.24 308.16 359.84 308.51 359.96 306.9 358.58 303.92 354.67 303.92 352.84 303.34 352.84 300.01 351.46 299.21 346.75 300.36 345.02 304.14 334.23 294.72 334.8 292.2 334.8 288.98 339.05 286.57 339.86 285.54 339.86 282.44 344.33 278.07 345.25 273.93 350.54 273.25 349.96 270.49 353.3 271.87 355.25 273.59 359.38 273.01 361.57 268.53"/><polygon class="cls-3" points="400.97 333.44 399.71 337.34 394.53 341.02 389.83 340.79 385.92 344.12 383.97 343.32 381.78 338.95 381.21 337.8 379.83 338.15 379.03 341.71 379.37 344.7 377.42 345.5 374.66 344.12 367.19 347 364.67 345.15 358.35 344.93 352.26 339.41 352.03 337.23 354.67 334.7 359.38 333.9 358.58 330.11 359.61 328.38 359.04 326.2 359.73 323.56 359.84 322.87 360.07 312.42 363.06 313.11 366.96 317.81 369.95 320 373.05 317.81 375.24 317.47 381.55 314.71 380.52 313.57 376.62 311.96 376.5 309.66 374.89 308.05 369.38 306.56 368.46 301.27 370.87 297.14 369.72 292.78 371.68 289.44 373.63 288.29 375.12 282.09 376.85 281.29 378.22 282.66 378.45 284.39 382.47 286.8 381.67 288.98 378.34 289.56 378.34 293.46 381.67 295.88 385.8 293.69 390.17 295.76 390.97 296.68 388.1 300.82 388.1 305.75 385.34 308.63 388.45 313.22 392.93 315.98 393.39 316.78 389.6 318.73 391.32 324.71 388.56 325.28 388.56 328.04 393.04 330.22 393.5 332.52 397.64 331.95 398.79 331.49 400.97 333.44"/><polygon class="cls-4" points="400.97 333.44 399.71 337.34 394.53 341.02 389.83 340.79 385.92 344.12 383.97 343.32 381.78 338.95 381.21 337.8 379.83 338.15 379.03 341.71 379.37 344.7 377.42 345.5 374.66 344.12 367.19 347 364.67 345.15 358.35 344.93 352.26 339.41 352.03 337.23 354.67 334.7 359.38 333.9 358.58 330.11 359.61 328.38 359.04 326.2 359.73 323.56 359.84 322.87 360.07 312.42 363.06 313.11 366.96 317.81 369.95 320 373.05 317.81 375.24 317.47 381.55 314.71 380.52 313.57 376.62 311.96 376.5 309.66 374.89 308.05 369.38 306.56 368.46 301.27 370.87 297.14 369.72 292.78 371.68 289.44 373.63 288.29 375.12 282.09 376.85 281.29 378.22 282.66 378.45 284.39 382.47 286.8 381.67 288.98 378.34 289.56 378.34 293.46 381.67 295.88 385.8 293.69 390.17 295.76 390.97 296.68 388.1 300.82 388.1 305.75 385.34 308.63 388.45 313.22 392.93 315.98 393.39 316.78 389.6 318.73 391.32 324.71 388.56 325.28 388.56 328.04 393.04 330.22 393.5 332.52 397.64 331.95 398.79 331.49 400.97 333.44"/><polygon class="cls-3" points="359.84 308.51 365.24 308.16 366.05 307.01 369.38 306.56 374.89 308.05 376.5 309.66 376.61 311.96 380.52 313.57 381.55 314.71 375.24 317.47 373.05 317.81 369.95 320 366.96 317.81 363.06 313.11 360.07 312.42 359.5 311.61 359.84 308.51"/><polygon class="cls-4" points="359.84 308.51 365.24 308.16 366.05 307.01 369.38 306.56 374.89 308.05 376.5 309.66 376.61 311.96 380.52 313.57 381.55 314.71 375.24 317.47 373.05 317.81 369.95 320 366.96 317.81 363.06 313.11 360.07 312.42 359.5 311.61 359.84 308.51"/><polygon class="cls-3" points="347.32 309.2 345.48 316.44 346.86 318.62 350.19 320.46 353.18 320.46 352.38 313.79 350.88 310.81 347.32 309.2"/><polygon class="cls-4" points="347.32 309.2 345.48 316.44 346.86 318.62 350.19 320.46 353.18 320.46 352.38 313.79 350.88 310.81 347.32 309.2"/><polygon class="cls-3" points="341.12 329.3 343.42 332.98 345.6 334.36 347.55 332.63 348.93 332.98 352.03 337.23 354.67 334.7 359.38 333.9 358.58 330.11 359.61 328.38 359.04 326.2 359.73 323.56 355.13 322.07 353.18 320.46 350.19 320.46 346.86 318.62 344.91 321.03 345.02 324.13 341.12 329.3"/><polygon class="cls-4" points="341.12 329.3 343.42 332.98 345.6 334.36 347.55 332.63 348.93 332.98 352.03 337.23 354.67 334.7 359.38 333.9 358.58 330.11 359.61 328.38 359.04 326.2 359.73 323.56 355.13 322.07 353.18 320.46 350.19 320.46 346.86 318.62 344.91 321.03 345.02 324.13 341.12 329.3"/><polygon class="cls-3" points="353.18 320.46 352.38 313.8 350.88 310.81 347.32 309.2 345.48 316.44 346.86 318.62 344.91 321.03 345.02 324.13 341.12 329.3 337.56 328.5 334.23 331.37 330.67 331.37 325.61 335.85 323.89 335.62 319.98 326.54 318.83 325.97 325.84 314.83 327.79 312.42 328.25 304.6 329.4 303 328.14 301.5 331.47 297.25 331.7 295.53 334.23 294.73 345.02 304.14 346.75 300.36 351.46 299.21 352.84 300.01 352.84 303.34 354.67 303.92 358.58 303.92 359.96 306.9 359.84 308.51 359.5 311.61 360.07 312.42 359.84 322.87 359.73 323.56 355.14 322.07 353.18 320.46"/><polygon class="cls-4" points="353.18 320.46 352.38 313.8 350.88 310.81 347.32 309.2 345.48 316.44 346.86 318.62 344.91 321.03 345.02 324.13 341.12 329.3 337.56 328.5 334.23 331.37 330.67 331.37 325.61 335.85 323.89 335.62 319.98 326.54 318.83 325.97 325.84 314.83 327.79 312.42 328.25 304.6 329.4 303 328.14 301.5 331.47 297.25 331.7 295.53 334.23 294.73 345.02 304.14 346.75 300.36 351.46 299.21 352.84 300.01 352.84 303.34 354.67 303.92 358.58 303.92 359.96 306.9 359.84 308.51 359.5 311.61 360.07 312.42 359.84 322.87 359.73 323.56 355.14 322.07 353.18 320.46"/><polygon class="cls-3" points="285.29 346.65 286.67 341.25 292.18 338.95 291.26 334.82 293.79 333.1 300.11 335.62 307.23 333.78 310.91 335.73 311.94 335.16 316.99 335.96 314.7 328.73 315.27 325.97 315.85 326.54 316.88 327.35 318.83 325.97 319.98 326.54 323.89 335.62 325.61 335.85 330.67 331.37 334.23 331.37 337.56 328.5 341.12 329.3 343.42 332.98 345.6 334.36 347.55 332.63 348.93 332.98 352.03 337.23 352.26 339.41 358.35 344.92 364.67 345.15 367.19 346.99 366.5 356.18 369.03 361.36 370.18 363.54 373.74 366.06 372.48 374.1 369.15 375.71 368.34 378.7 368.69 380.08 363.4 382.83 357.89 378.01 353.75 378.01 345.71 375.94 336.41 373.53 331.58 369.16 326.64 368.59 307.92 361.36 295.63 352.39 290 346.65 287.01 345.96 285.29 346.65"/><polygon class="cls-4" points="285.29 346.65 286.67 341.25 292.18 338.95 291.26 334.82 293.79 333.1 300.11 335.62 307.23 333.78 310.91 335.73 311.94 335.16 316.99 335.96 314.7 328.73 315.27 325.97 315.85 326.54 316.88 327.35 318.83 325.97 319.98 326.54 323.89 335.62 325.61 335.85 330.67 331.37 334.23 331.37 337.56 328.5 341.12 329.3 343.42 332.98 345.6 334.36 347.55 332.63 348.93 332.98 352.03 337.23 352.26 339.41 358.35 344.92 364.67 345.15 367.19 346.99 366.5 356.18 369.03 361.36 370.18 363.54 373.74 366.06 372.48 374.1 369.15 375.71 368.34 378.7 368.69 380.08 363.4 382.83 357.89 378.01 353.75 378.01 345.71 375.94 336.41 373.53 331.58 369.16 326.64 368.59 307.92 361.36 295.63 352.39 290 346.65 287.01 345.96 285.29 346.65"/><polygon class="cls-3" points="285.29 346.65 286.67 341.25 292.18 338.95 291.26 334.82 293.79 333.1 300.11 335.62 307.23 333.78 310.91 335.73 311.94 335.16 316.99 335.96 314.7 328.73 315.27 325.97 315.85 326.54 316.88 327.35 318.83 325.97 325.84 314.83 327.79 312.42 328.25 304.6 329.4 303 328.14 301.5 324 296.8 322.16 300.36 319.75 302.3 316.42 300.93 313.09 302.08 310.91 299.9 307.46 298.29 302.87 299.67 301.37 298.86 299.99 294.49 297.81 292.89 295.28 295.07 291.72 295.64 289.54 294.84 289.31 292.89 286.78 291.05 279.08 293.58 274.37 295.3 271.62 297.25 267.71 297.25 266.22 299.43 266.45 301.04 268.4 301.96 271.96 302.19 272.54 303.34 270.93 307.13 273 311.85 275.41 312.07 276.21 313.22 275.18 316.78 268.29 318.73 265.53 322.64 262.2 322.18 261.05 321.37 258.41 323.56 256.91 324.13 254.62 324.94 250.83 330.45 256.91 337.92 283.34 347.34 285.29 346.65"/><polygon class="cls-4" points="285.29 346.65 286.67 341.25 292.18 338.95 291.26 334.82 293.79 333.1 300.11 335.62 307.23 333.78 310.91 335.73 311.94 335.16 316.99 335.96 314.7 328.73 315.27 325.97 315.85 326.54 316.88 327.35 318.83 325.97 325.84 314.83 327.79 312.42 328.25 304.6 329.4 303 328.14 301.5 324 296.8 322.16 300.36 319.75 302.3 316.42 300.93 313.09 302.08 310.91 299.9 307.46 298.29 302.87 299.67 301.37 298.86 299.99 294.49 297.81 292.89 295.28 295.07 291.72 295.64 289.54 294.84 289.31 292.89 286.78 291.05 279.08 293.58 274.37 295.3 271.62 297.25 267.71 297.25 266.22 299.43 266.45 301.04 268.4 301.96 271.96 302.19 272.54 303.34 270.93 307.13 273 311.85 275.41 312.07 276.21 313.22 275.18 316.78 268.29 318.73 265.53 322.64 262.2 322.18 261.05 321.37 258.41 323.56 256.91 324.13 254.62 324.94 250.83 330.45 256.91 337.92 283.34 347.34 285.29 346.65"/><polygon class="cls-5" points="256.91 324.13 256.11 314.48 253.12 311.38 249.56 313.45 246.46 312.65 244.16 310.92 239 315.18 236.81 315.18 233.37 318.73 236.81 320.46 248.3 327.24 250.83 330.45 254.62 324.94 256.91 324.13"/><polygon class="cls-4" points="256.91 324.13 256.11 314.48 253.12 311.38 249.56 313.45 246.46 312.65 244.16 310.92 239 315.18 236.81 315.18 233.37 318.73 236.81 320.46 248.3 327.24 250.83 330.45 254.62 324.94 256.91 324.13"/><polygon class="cls-5" points="367.19 346.99 366.5 356.18 369.03 361.36 370.18 363.54 373.74 366.06 372.48 374.1 369.15 375.71 368.34 378.7 368.69 380.08 363.4 382.83 370.18 385.13 375.7 388.58 380.29 390.19 394.65 390.65 395.8 392.6 399.93 394.44 406.94 397.19 411.31 396.5 430.84 388.92 440.37 379.39 442.78 378.36 445.31 379.39 444.97 380.31 448.64 382.38 452.78 382.61 453.81 381 460.48 383.07 461.28 380.88 459.32 376.29 460.59 370.43 463.12 366.75 464.15 361.24 464.84 360.44 447.61 360.55 439.68 359.63 438.76 356.53 434.86 353.89 435.08 350.78 434.05 349.75 423.6 354.23 420.5 351.24 419.92 349.06 421.53 344.7 419.81 340.79 413.49 339.41 406.48 331.02 402.92 329.88 402.69 331.49 400.97 333.44 399.71 337.35 394.53 341.02 389.83 340.79 385.92 344.12 383.97 343.32 381.78 338.95 381.21 337.8 379.83 338.15 379.03 341.71 379.37 344.7 377.42 345.5 374.66 344.12 367.19 346.99"/><polygon class="cls-4" points="367.19 346.99 366.5 356.18 369.03 361.36 370.18 363.54 373.74 366.06 372.48 374.1 369.15 375.71 368.34 378.7 368.69 380.08 363.4 382.83 370.18 385.13 375.7 388.58 380.29 390.19 394.65 390.65 395.8 392.6 399.93 394.44 406.94 397.19 411.31 396.5 430.84 388.92 440.37 379.39 442.78 378.36 445.31 379.39 444.97 380.31 448.64 382.38 452.78 382.61 453.81 381 460.48 383.07 461.28 380.88 459.32 376.29 460.59 370.43 463.12 366.75 464.15 361.24 464.84 360.44 447.61 360.55 439.68 359.63 438.76 356.53 434.86 353.89 435.08 350.78 434.05 349.75 423.6 354.23 420.5 351.24 419.92 349.06 421.53 344.7 419.81 340.79 413.49 339.41 406.48 331.02 402.92 329.88 402.69 331.49 400.97 333.44 399.71 337.35 394.53 341.02 389.83 340.79 385.92 344.12 383.97 343.32 381.78 338.95 381.21 337.8 379.83 338.15 379.03 341.71 379.37 344.7 377.42 345.5 374.66 344.12 367.19 346.99"/><polygon class="cls-5" points="457.71 337.34 467.48 332.64 476.21 330.8 477.93 331.72 481.5 329.99 488.16 327.46 491.95 324.94 494.13 327.46 498.27 327.58 498.61 327.58 499.99 331.72 500.91 335.62 506.42 339.41 510.56 339.07 512.74 336.31 517.45 337.12 524.92 338.15 525.72 341.13 526.07 353.31 518.14 354.46 514 350.09 512.28 350.09 510.79 346.54 508.95 345.15 508.61 343.2 505.27 341.6 503.09 341.6 500.33 344.12 495.17 346.42 487.81 353.89 482.3 347.91 482.76 342.97 476.67 340.79 474.03 348.49 469.66 354.69 468.51 352.97 468.51 352.51 464.95 347.8 461.74 346.08 458.98 343.78 459.32 341.48 457.71 337.34"/><polygon class="cls-4" points="457.71 337.34 467.48 332.64 476.21 330.8 477.93 331.72 481.5 329.99 488.16 327.46 491.95 324.94 494.13 327.46 498.27 327.58 498.61 327.58 499.99 331.72 500.91 335.62 506.42 339.41 510.56 339.07 512.74 336.31 517.45 337.12 524.92 338.15 525.72 341.13 526.07 353.31 518.14 354.46 514 350.09 512.28 350.09 510.79 346.54 508.95 345.15 508.61 343.2 505.27 341.6 503.09 341.6 500.33 344.12 495.17 346.42 487.81 353.89 482.3 347.91 482.76 342.97 476.67 340.79 474.03 348.49 469.66 354.69 468.51 352.97 468.51 352.51 464.95 347.8 461.74 346.08 458.98 343.78 459.32 341.48 457.71 337.34"/><polygon class="cls-3" points="518.14 354.46 517.57 355.26 525.38 362.04 532.85 366.41 534.8 370.54 539.28 372.73 539.62 380.19 511.48 382.38 501.72 400.87 505.04 405.58 504.24 407.53 503.78 413.62 503.78 417.99 491.72 407.88 489.31 404.66 473.57 392.83 465.3 385.82 460.48 383.07 461.28 380.88 459.32 376.29 460.59 370.43 463.12 366.75 464.15 361.24 464.84 360.44 468.51 356.3 469.66 354.69 474.03 348.49 476.67 340.79 482.76 342.97 482.3 347.91 487.81 353.89 495.17 346.42 500.33 344.12 503.09 341.6 505.27 341.6 508.61 343.2 508.95 345.15 510.79 346.54 512.28 350.09 514 350.09 518.14 354.46"/><polygon class="cls-4" points="518.14 354.46 517.57 355.26 525.38 362.04 532.85 366.41 534.8 370.54 539.28 372.73 539.62 380.19 511.48 382.38 501.72 400.87 505.04 405.58 504.24 407.53 503.78 413.62 503.78 417.99 491.72 407.88 489.31 404.66 473.57 392.83 465.3 385.82 460.48 383.07 461.28 380.88 459.32 376.29 460.59 370.43 463.12 366.75 464.15 361.24 464.84 360.44 468.51 356.3 469.66 354.69 474.03 348.49 476.67 340.79 482.76 342.97 482.3 347.91 487.81 353.89 495.17 346.42 500.33 344.12 503.09 341.6 505.27 341.6 508.61 343.2 508.95 345.15 510.79 346.54 512.28 350.09 514 350.09 518.14 354.46"/><polygon class="cls-3" points="532.44 272.14 531.18 281.91 532.9 293.05 528.31 298.22 528.31 305.11 526.7 308.67 517.39 316.25 514.41 319.24 517.85 322.8 517.51 323.95 512.57 327.74 505.68 329 504.87 327.39 502.11 326.48 503.26 324.06 501.88 323.26 491.89 324.98 494.07 327.51 498.21 327.62 498.55 327.62 499.93 331.76 500.85 335.67 506.37 339.46 510.5 339.11 512.68 336.35 517.39 337.16 524.86 338.19 525.66 341.18 564.03 338.88 563.05 330.86 564.41 330.71 564.11 323.93 563.21 323.93 562.91 318.81 561.7 304.5 558.09 299.38 551.83 291.68 551.01 286.13 549.2 284.63 546.94 285.38 545.59 283.12 545.74 278.3 542.72 277.25 541.97 279.81 538.96 279.81 537.76 277.4 534.14 277.7 533.69 270.17 532.44 272.14"/><polygon class="cls-4" points="532.44 272.14 531.18 281.91 532.9 293.05 528.31 298.22 528.31 305.11 526.7 308.67 517.39 316.25 514.41 319.24 517.85 322.8 517.51 323.95 512.57 327.74 505.68 329 504.87 327.39 502.11 326.48 503.26 324.06 501.88 323.26 491.89 324.98 494.07 327.51 498.21 327.62 498.55 327.62 499.93 331.76 500.85 335.67 506.37 339.46 510.5 339.11 512.68 336.35 517.39 337.16 524.86 338.19 525.66 341.18 564.03 338.88 563.05 330.86 564.41 330.71 564.11 323.93 563.21 323.93 562.91 318.81 561.7 304.5 558.09 299.38 551.83 291.68 551.01 286.13 549.2 284.63 546.94 285.38 545.59 283.12 545.74 278.3 542.72 277.25 541.97 279.81 538.96 279.81 537.76 277.4 534.14 277.7 533.69 270.17 532.44 272.14"/><polygon class="cls-5" points="564.02 338.84 563.04 330.81 564.4 330.66 564.1 323.88 563.19 323.88 562.89 318.76 561.69 304.46 558.08 299.34 560.64 296.78 561.54 295.73 563.04 296.18 564.1 294.97 563.19 294.07 564.85 292.11 565.45 292.71 567.86 290 567.41 288.95 568.92 286.99 570.12 286.84 570.42 284.73 574.04 283.38 573.74 282.02 578.1 280.52 580.06 279.46 583.22 279.31 582.92 277.66 584.13 277.2 584.13 275.55 587.14 275.4 587.14 277.05 588.79 277.05 588.64 273.29 591.8 272.69 591.2 268.62 590.45 268.02 591.5 265.46 591.2 263.2 594.06 262.45 595.57 262.9 595.57 260.04 594.82 259.88 594.37 261.24 590.45 261.24 590.15 257.33 591.65 257.03 591.68 253.48 597.1 253.37 598.48 252.22 599.06 251.65 597.91 250.61 600.9 249.47 604 251.07 607.56 255.44 606.75 257.85 607.56 260.38 605.72 266.47 597.56 277.26 595.49 286.11 595.49 290.82 592.97 293 591.59 293.12 591.13 294.5 592.97 296.33 596.65 295.19 597.68 295.76 596.99 297.71 593.66 300.24 592.62 302.54 593.09 303.23 596.41 301.27 596.76 302.65 595.38 307.13 590.9 324.25 590.56 329.54 589.75 329.42 589.87 324.36 586.31 320.46 586.88 315.18 586.08 313.79 585.5 314.37 584.7 316.32 581.13 319.88 576.54 323.33 575.97 325.74 570.91 335.39 566.32 333.67 564.25 335.51 564.02 338.84"/><polygon class="cls-4" points="564.02 338.84 563.04 330.81 564.4 330.66 564.1 323.88 563.19 323.88 562.89 318.76 561.69 304.46 558.08 299.34 560.64 296.78 561.54 295.73 563.04 296.18 564.1 294.97 563.19 294.07 564.85 292.11 565.45 292.71 567.86 290 567.41 288.95 568.92 286.99 570.12 286.84 570.42 284.73 574.04 283.38 573.74 282.02 578.1 280.52 580.06 279.46 583.22 279.31 582.92 277.66 584.13 277.2 584.13 275.55 587.14 275.4 587.14 277.05 588.79 277.05 588.64 273.29 591.8 272.69 591.2 268.62 590.45 268.02 591.5 265.46 591.2 263.2 594.06 262.45 595.57 262.9 595.57 260.04 594.82 259.88 594.37 261.24 590.45 261.24 590.15 257.33 591.65 257.03 591.68 253.48 597.1 253.37 598.48 252.22 599.06 251.65 597.91 250.61 600.9 249.47 604 251.07 607.56 255.44 606.75 257.85 607.56 260.38 605.72 266.47 597.56 277.26 595.49 286.11 595.49 290.82 592.97 293 591.59 293.12 591.13 294.5 592.97 296.33 596.65 295.19 597.68 295.76 596.99 297.71 593.66 300.24 592.62 302.54 593.09 303.23 596.41 301.27 596.76 302.65 595.38 307.13 590.9 324.25 590.56 329.54 589.75 329.42 589.87 324.36 586.31 320.46 586.88 315.18 586.08 313.79 585.5 314.37 584.7 316.32 581.13 319.88 576.54 323.33 575.97 325.74 570.91 335.39 566.32 333.67 564.25 335.51 564.02 338.84"/><polygon class="cls-3" points="557.86 299.34 560.42 296.78 561.33 295.73 562.83 296.18 563.88 294.97 562.98 294.07 564.64 292.11 565.24 292.71 567.65 290 567.2 288.95 568.7 286.99 569.91 286.84 570.21 284.73 573.82 283.38 573.52 282.02 577.89 280.52 579.85 279.46 583.01 279.31 582.71 277.66 583.91 277.2 583.91 275.55 586.92 275.4 586.92 277.05 588.58 277.05 588.43 273.29 591.59 272.69 590.99 268.62 590.24 268.02 591.29 265.46 590.99 263.2 593.85 262.45 595.36 262.9 595.36 260.04 594.6 259.89 594.15 261.24 590.24 261.24 589.93 257.33 591.44 257.03 591.95 253.48 572.3 252.68 567.94 255.9 547.84 261.18 545.65 261.53 534.97 267.38 533.46 270.13 533.92 277.66 537.53 277.36 538.74 279.76 541.75 279.76 542.5 277.2 545.51 278.26 545.36 283.08 546.72 285.34 548.98 284.58 550.78 286.09 551.61 291.63 557.86 299.34"/><polygon class="cls-4" points="557.86 299.34 560.42 296.78 561.33 295.73 562.83 296.18 563.88 294.97 562.98 294.07 564.64 292.11 565.24 292.71 567.65 290 567.2 288.95 568.7 286.99 569.91 286.84 570.21 284.73 573.82 283.38 573.52 282.02 577.89 280.52 579.85 279.46 583.01 279.31 582.71 277.66 583.91 277.2 583.91 275.55 586.92 275.4 586.92 277.05 588.58 277.05 588.43 273.29 591.59 272.69 590.99 268.62 590.24 268.02 591.29 265.46 590.99 263.2 593.85 262.45 595.36 262.9 595.36 260.04 594.6 259.89 594.15 261.24 590.24 261.24 589.93 257.33 591.44 257.03 591.95 253.48 572.3 252.68 567.94 255.9 547.84 261.18 545.65 261.53 534.97 267.38 533.46 270.13 533.92 277.66 537.53 277.36 538.74 279.76 541.75 279.76 542.5 277.2 545.51 278.26 545.36 283.08 546.72 285.34 548.98 284.58 550.78 286.09 551.61 291.63 557.86 299.34"/><g class="cls-6"><path class="cls-7" d="M25.77,167.32a6,6,0,0,0-5.26,8.81l4.93,8.92a.36.36,0,0,0,.33.19.36.36,0,0,0,.32-.19L31,176.13a6,6,0,0,0-5.26-8.81" transform="translate(-0.93 -155.63)"/><path class="cls-3" d="M29.39,173.47l-.95.95a.26.26,0,0,1-.35,0L27,173.29l1.12-1.12a.24.24,0,0,1,.18-.07.22.22,0,0,1,.17.07l.95,1a.24.24,0,0,1,0,.35m.28-.63-1-1a.64.64,0,0,0-.45-.19.66.66,0,0,0-.46.19l-1.4,1.4,1.4,1.41a.67.67,0,0,0,.46.18.64.64,0,0,0,.45-.18l1-.95a.65.65,0,0,0,0-.91" transform="translate(-0.93 -155.63)"/><path class="cls-3" d="M27,175.84,25.9,177l-1.31-1.31a.22.22,0,0,1-.07-.17v-1.32l.59-.59L27,175.49a.24.24,0,0,1,0,.35m-3.31-1.42a.29.29,0,0,1-.18.07.26.26,0,0,1-.17-.07l-1.13-1.13,1.13-1.12a.24.24,0,0,1,.35,0l1.12,1.12Zm.81-3.31a.21.21,0,0,1,.07-.17l1.31-1.31L27,170.75a.24.24,0,0,1,0,.35L25.11,173l-.59-.6Zm.87,2.18,1.91-1.91a.65.65,0,0,0,0-.91l-1.4-1.4-1.59,1.59a.64.64,0,0,0-.19.45V172l-.13-.14a.65.65,0,0,0-.91,0l-1.41,1.4,1.41,1.41a.63.63,0,0,0,.45.18.65.65,0,0,0,.46-.18l.13-.14v.92a.64.64,0,0,0,.19.45l1.59,1.59,1.4-1.4a.65.65,0,0,0,0-.91Z" transform="translate(-0.93 -155.63)"/><path class="cls-7" d="M100.75,179.27a6,6,0,0,0-5.26,8.82l4.93,8.92a.36.36,0,0,0,.33.19.36.36,0,0,0,.32-.19l4.94-8.92a6.1,6.1,0,0,0,.71-2.84,6,6,0,0,0-6-6" transform="translate(-0.93 -155.63)"/><path class="cls-3" d="M104.37,185.43l-1,.94a.24.24,0,0,1-.35,0L102,185.25l1.12-1.12a.25.25,0,0,1,.18-.08.23.23,0,0,1,.17.08l1,.94a.25.25,0,0,1,0,.36m.28-.63-1-1a.64.64,0,0,0-.91,0l-1.4,1.4,1.4,1.4a.63.63,0,0,0,.46.19.61.61,0,0,0,.45-.19l1-.94a.65.65,0,0,0,0-.91" transform="translate(-0.93 -155.63)"/><path class="cls-3" d="M102,187.79l-1.12,1.13-1.31-1.31a.24.24,0,0,1-.07-.18v-1.31l.59-.59,1.91,1.91a.24.24,0,0,1,0,.35m-3.31-1.42a.24.24,0,0,1-.36,0l-1.12-1.12,1.12-1.12a.25.25,0,0,1,.36,0l1.12,1.12Zm.81-3.3a.24.24,0,0,1,.07-.18l1.31-1.31,1.12,1.13a.24.24,0,0,1,0,.35L100.09,185l-.59-.59Zm.87,2.18,1.91-1.91a.65.65,0,0,0,0-.91l-1.4-1.4-1.59,1.58a.68.68,0,0,0-.19.46V184l-.13-.14a.65.65,0,0,0-.91,0l-1.41,1.4,1.41,1.4a.64.64,0,0,0,.45.19.68.68,0,0,0,.46-.19l.13-.13v.91a.64.64,0,0,0,.19.46l1.59,1.59,1.4-1.41a.65.65,0,0,0,0-.91Z" transform="translate(-0.93 -155.63)"/><path class="cls-7" d="M79.26,276.93A6,6,0,0,0,74,285.75l4.93,8.92a.39.39,0,0,0,.33.19.37.37,0,0,0,.33-.19l4.93-8.92a6,6,0,0,0-5.26-8.82" transform="translate(-0.93 -155.63)"/><path class="cls-3" d="M82.89,283.09l-1,1a.26.26,0,0,1-.35,0l-1.13-1.13,1.13-1.12a.22.22,0,0,1,.17-.07.24.24,0,0,1,.18.07l1,.95a.26.26,0,0,1,0,.35m.27-.63-.94-.95a.66.66,0,0,0-.46-.19.64.64,0,0,0-.45.19l-1.4,1.4,1.4,1.4a.61.61,0,0,0,.45.19.63.63,0,0,0,.46-.19l.94-.94a.65.65,0,0,0,0-.91" transform="translate(-0.93 -155.63)"/><path class="cls-3" d="M80.52,285.46l-1.13,1.12-1.3-1.31a.25.25,0,0,1-.08-.17v-1.32l.59-.59,1.92,1.91a.25.25,0,0,1,0,.36M77.2,284a.26.26,0,0,1-.17.07.29.29,0,0,1-.18-.07l-1.12-1.13,1.12-1.12a.24.24,0,0,1,.35,0l1.13,1.12Zm.81-3.31a.25.25,0,0,1,.08-.18l1.3-1.3,1.13,1.12a.24.24,0,0,1,0,.35l-1.92,1.91L78,282Zm.87,2.18L80.8,281a.65.65,0,0,0,0-.91l-1.41-1.4-1.58,1.59a.64.64,0,0,0-.19.45v.92l-.14-.14a.65.65,0,0,0-.91,0l-1.4,1.4,1.4,1.4a.6.6,0,0,0,.46.19.6.6,0,0,0,.45-.19l.14-.13v.92a.64.64,0,0,0,.19.45l1.58,1.59,1.41-1.4a.65.65,0,0,0,0-.91Z" transform="translate(-0.93 -155.63)"/><path class="cls-7" d="M199.45,243.76a6,6,0,0,0-5.26,8.81l4.93,8.92a.36.36,0,0,0,.33.19.36.36,0,0,0,.32-.19l4.94-8.92a6.1,6.1,0,0,0,.71-2.84,6,6,0,0,0-6-6" transform="translate(-0.93 -155.63)"/><path class="cls-3" d="M203.07,249.91l-.95,1a.26.26,0,0,1-.35,0l-1.12-1.13,1.12-1.12a.24.24,0,0,1,.18-.07.22.22,0,0,1,.17.07l.95.95a.24.24,0,0,1,0,.35m.28-.63-.95-.95a.64.64,0,0,0-.45-.19.66.66,0,0,0-.46.19l-1.4,1.4,1.4,1.4a.63.63,0,0,0,.46.19.61.61,0,0,0,.45-.19l.95-.94a.65.65,0,0,0,0-.91" transform="translate(-0.93 -155.63)"/><path class="cls-3" d="M200.7,252.28l-1.12,1.12-1.31-1.31a.22.22,0,0,1-.07-.17V250.6l.59-.59,1.91,1.92a.24.24,0,0,1,0,.35m-3.31-1.42a.29.29,0,0,1-.18.07.26.26,0,0,1-.17-.07l-1.13-1.13,1.13-1.12a.24.24,0,0,1,.35,0l1.12,1.12Zm.81-3.31a.24.24,0,0,1,.07-.18l1.31-1.3,1.12,1.12a.24.24,0,0,1,0,.35l-1.91,1.91-.59-.59Zm.87,2.18,1.91-1.91a.65.65,0,0,0,0-.91l-1.4-1.4L198,247.1a.64.64,0,0,0-.19.45v.92l-.13-.14a.65.65,0,0,0-.91,0l-1.41,1.4,1.41,1.41a.63.63,0,0,0,.45.18.67.67,0,0,0,.46-.18l.13-.14v.92a.64.64,0,0,0,.19.45l1.59,1.59,1.4-1.4a.65.65,0,0,0,0-.91Z" transform="translate(-0.93 -155.63)"/><path class="cls-7" d="M162.59,313.77a6,6,0,0,0-5.26,8.81l4.94,8.92a.37.37,0,0,0,.32.2.38.38,0,0,0,.33-.2l4.93-8.92a6,6,0,0,0-5.26-8.81" transform="translate(-0.93 -155.63)"/><path class="cls-3" d="M166.22,319.92l-.95.95a.24.24,0,0,1-.35,0l-1.13-1.13,1.13-1.12a.22.22,0,0,1,.17-.07.24.24,0,0,1,.18.07l.95.95a.26.26,0,0,1,0,.35m.27-.63-.94-1a.65.65,0,0,0-.46-.18.63.63,0,0,0-.45.18l-1.4,1.4,1.4,1.41a.64.64,0,0,0,.45.18.67.67,0,0,0,.46-.18l.94-.95a.65.65,0,0,0,0-.91" transform="translate(-0.93 -155.63)"/><path class="cls-3" d="M163.85,322.29l-1.12,1.12-1.31-1.31a.23.23,0,0,1-.08-.17v-1.32l.6-.59,1.91,1.92a.24.24,0,0,1,0,.35m-3.32-1.42a.26.26,0,0,1-.17.07.29.29,0,0,1-.18-.07l-1.12-1.13,1.12-1.12a.24.24,0,0,1,.35,0l1.13,1.12Zm.81-3.31a.21.21,0,0,1,.08-.17l1.31-1.31,1.12,1.12a.24.24,0,0,1,0,.35l-1.91,1.92-.6-.6Zm.87,2.18,1.92-1.91a.65.65,0,0,0,0-.91l-1.4-1.4-1.59,1.59a.64.64,0,0,0-.19.45v.92l-.14-.14a.65.65,0,0,0-.91,0l-1.4,1.4,1.4,1.41a.65.65,0,0,0,.46.18.63.63,0,0,0,.45-.18L161,321v.92a.64.64,0,0,0,.19.45l1.59,1.59,1.4-1.4a.65.65,0,0,0,0-.91Z" transform="translate(-0.93 -155.63)"/><path class="cls-7" d="M230.21,327.34a6,6,0,0,0-5.26,8.82l4.93,8.92a.36.36,0,0,0,.33.19.36.36,0,0,0,.32-.19l4.94-8.92a6,6,0,0,0-5.26-8.82" transform="translate(-0.93 -155.63)"/><path class="cls-3" d="M233.83,333.5l-1,.95a.26.26,0,0,1-.35,0l-1.12-1.13,1.12-1.12a.24.24,0,0,1,.18-.07.22.22,0,0,1,.17.07l1,.95a.24.24,0,0,1,0,.35m.28-.63-1-.95a.64.64,0,0,0-.45-.19.68.68,0,0,0-.46.19l-1.4,1.4,1.4,1.4a.63.63,0,0,0,.46.19.61.61,0,0,0,.45-.19l1-.94a.65.65,0,0,0,0-.91" transform="translate(-0.93 -155.63)"/><path class="cls-3" d="M231.46,335.87,230.34,337,229,335.68a.23.23,0,0,1-.07-.17v-1.32l.59-.59,1.91,1.91a.25.25,0,0,1,0,.36m-3.31-1.42a.29.29,0,0,1-.18.07.26.26,0,0,1-.17-.07l-1.13-1.13,1.13-1.12a.24.24,0,0,1,.35,0l1.12,1.12Zm.81-3.31A.24.24,0,0,1,229,331l1.31-1.31,1.12,1.13a.24.24,0,0,1,0,.35L229.55,333l-.59-.59Zm.87,2.18,1.91-1.91a.65.65,0,0,0,0-.91l-1.4-1.4-1.59,1.58a.68.68,0,0,0-.19.46v.92l-.13-.14a.65.65,0,0,0-.91,0l-1.4,1.4,1.4,1.4a.6.6,0,0,0,.45.19.62.62,0,0,0,.46-.19l.13-.13v.92a.64.64,0,0,0,.19.45l1.59,1.59,1.4-1.41a.65.65,0,0,0,0-.91Z" transform="translate(-0.93 -155.63)"/><path class="cls-7" d="M335.85,318.38a6,6,0,0,0-5.26,8.82l4.93,8.92a.4.4,0,0,0,.33.19.38.38,0,0,0,.32-.19l4.94-8.93a6,6,0,0,0-5.26-8.81" transform="translate(-0.93 -155.63)"/><path class="cls-3" d="M339.47,324.53l-.94,1a.25.25,0,0,1-.36,0l-1.12-1.12,1.12-1.13a.29.29,0,0,1,.18-.07.31.31,0,0,1,.18.07l.94.95a.24.24,0,0,1,0,.35m.28-.63-.95-.94a.6.6,0,0,0-.45-.19.63.63,0,0,0-.46.19l-1.4,1.4,1.4,1.4a.68.68,0,0,0,.46.19.65.65,0,0,0,.45-.19l.95-.95a.65.65,0,0,0,0-.91" transform="translate(-0.93 -155.63)"/><path class="cls-3" d="M337.1,326.9,336,328l-1.31-1.3a.29.29,0,0,1-.07-.18v-1.31l.59-.59,1.91,1.91a.24.24,0,0,1,0,.35m-3.31-1.42a.24.24,0,0,1-.18.07.22.22,0,0,1-.17-.07l-1.13-1.12,1.13-1.13a.26.26,0,0,1,.35,0l1.12,1.13Zm.81-3.31a.28.28,0,0,1,.07-.17l1.31-1.31,1.12,1.12a.25.25,0,0,1,0,.36l-1.91,1.91-.59-.59Zm.87,2.19,1.91-1.92a.65.65,0,0,0,0-.91l-1.4-1.4-1.59,1.59a.63.63,0,0,0-.18.45v.92l-.14-.13a.63.63,0,0,0-.91,0l-1.4,1.4,1.4,1.4a.64.64,0,0,0,.91,0l.14-.14v.92a.63.63,0,0,0,.18.45l1.59,1.59,1.4-1.4a.65.65,0,0,0,0-.91Z" transform="translate(-0.93 -155.63)"/><path class="cls-7" d="M320.06,387.07a6,6,0,0,0-5.26,8.82l4.93,8.92a.37.37,0,0,0,.33.19.39.39,0,0,0,.33-.19l4.93-8.92a6,6,0,0,0-5.26-8.82" transform="translate(-0.93 -155.63)"/><path class="cls-3" d="M323.68,393.23l-.94.94a.25.25,0,0,1-.36,0l-1.12-1.12,1.12-1.12a.24.24,0,0,1,.36,0l.94.94a.25.25,0,0,1,0,.36m.28-.63-.94-1a.68.68,0,0,0-.46-.19.64.64,0,0,0-.45.19l-1.41,1.4,1.41,1.4a.61.61,0,0,0,.45.19.63.63,0,0,0,.46-.19l.94-.94a.65.65,0,0,0,0-.91" transform="translate(-0.93 -155.63)"/><path class="cls-3" d="M321.32,395.59l-1.13,1.13-1.31-1.31a.29.29,0,0,1-.07-.18v-1.31l.59-.59,1.92,1.91a.26.26,0,0,1,0,.35M318,394.17a.25.25,0,0,1-.17.08.23.23,0,0,1-.18-.08l-1.13-1.12,1.13-1.12a.24.24,0,0,1,.35,0l1.13,1.12Zm.81-3.3a.29.29,0,0,1,.07-.18l1.31-1.31,1.13,1.13a.26.26,0,0,1,0,.35l-1.92,1.91-.59-.59Zm.87,2.18,1.91-1.91a.65.65,0,0,0,0-.91l-1.4-1.4-1.58,1.58a.63.63,0,0,0-.19.46v.92l-.14-.14a.65.65,0,0,0-.91,0l-1.4,1.4,1.4,1.4a.64.64,0,0,0,.91,0l.14-.13v.91a.6.6,0,0,0,.19.46l1.58,1.59,1.4-1.41a.65.65,0,0,0,0-.91Z" transform="translate(-0.93 -155.63)"/><path class="cls-7" d="M230.21,397.45a6,6,0,0,0-5.26,8.82l4.93,8.92a.36.36,0,0,0,.33.19.36.36,0,0,0,.32-.19l4.94-8.92a6,6,0,0,0-5.26-8.82" transform="translate(-0.93 -155.63)"/><path class="cls-3" d="M233.83,403.61l-1,.94a.24.24,0,0,1-.35,0l-1.12-1.12,1.12-1.12a.25.25,0,0,1,.18-.08.23.23,0,0,1,.17.08l1,.94a.25.25,0,0,1,0,.36m.28-.63-1-1a.64.64,0,0,0-.45-.19.68.68,0,0,0-.46.19l-1.4,1.4,1.4,1.4a.63.63,0,0,0,.46.19.61.61,0,0,0,.45-.19l1-.94a.65.65,0,0,0,0-.91" transform="translate(-0.93 -155.63)"/><path class="cls-3" d="M231.46,406l-1.12,1.13L229,405.79a.24.24,0,0,1-.07-.18V404.3l.59-.59,1.91,1.91a.24.24,0,0,1,0,.35m-3.31-1.42a.25.25,0,0,1-.18.08.23.23,0,0,1-.17-.08l-1.13-1.12,1.13-1.12a.24.24,0,0,1,.35,0l1.12,1.12Zm.81-3.3a.24.24,0,0,1,.07-.18l1.31-1.31,1.12,1.13a.24.24,0,0,1,0,.35l-1.91,1.91-.59-.59Zm.87,2.18,1.91-1.91a.65.65,0,0,0,0-.91l-1.4-1.4-1.59,1.58a.68.68,0,0,0-.19.46v.92l-.13-.14a.65.65,0,0,0-.91,0l-1.4,1.4,1.4,1.4a.64.64,0,0,0,.45.19.66.66,0,0,0,.46-.19l.13-.13v.91a.64.64,0,0,0,.19.46l1.59,1.59,1.4-1.41a.65.65,0,0,0,0-.91Z" transform="translate(-0.93 -155.63)"/><path class="cls-7" d="M282.6,392.58a6,6,0,0,0-5.25,8.82l4.93,8.92a.36.36,0,0,0,.32.19.36.36,0,0,0,.33-.19l4.94-8.93a6.06,6.06,0,0,0,.71-2.83,6,6,0,0,0-6-6" transform="translate(-0.93 -155.63)"/><path class="cls-3" d="M286.23,398.73l-1,.95a.24.24,0,0,1-.35,0l-1.12-1.12,1.12-1.13a.29.29,0,0,1,.18-.07.26.26,0,0,1,.17.07l1,.95a.24.24,0,0,1,0,.35m.28-.63-.95-.94a.6.6,0,0,0-.45-.19.6.6,0,0,0-.46.19l-1.4,1.4,1.4,1.4a.68.68,0,0,0,.46.19.65.65,0,0,0,.45-.19l.95-.95a.65.65,0,0,0,0-.91" transform="translate(-0.93 -155.63)"/><path class="cls-3" d="M283.86,401.1l-1.12,1.12-1.31-1.3a.24.24,0,0,1-.07-.18v-1.31l.59-.59,1.91,1.91a.24.24,0,0,1,0,.35m-3.31-1.42a.27.27,0,0,1-.36,0l-1.12-1.12,1.12-1.13a.27.27,0,0,1,.36,0l1.12,1.13Zm.81-3.31a.23.23,0,0,1,.07-.17l1.31-1.31,1.12,1.12a.25.25,0,0,1,0,.36L282,398.28l-.59-.59Zm.87,2.19,1.91-1.92a.65.65,0,0,0,0-.91l-1.4-1.4-1.59,1.59a.64.64,0,0,0-.19.45v.92l-.13-.13a.65.65,0,0,0-.91,0l-1.41,1.4,1.41,1.4a.64.64,0,0,0,.45.19.68.68,0,0,0,.46-.19l.13-.14v.92a.64.64,0,0,0,.19.45l1.59,1.59,1.4-1.4a.65.65,0,0,0,0-.91Z" transform="translate(-0.93 -155.63)"/><path class="cls-7" d="M257.9,427.34a6,6,0,0,0-5.26,8.81l4.94,8.93a.38.38,0,0,0,.32.19.38.38,0,0,0,.33-.19l4.93-8.93a6,6,0,0,0-5.26-8.81" transform="translate(-0.93 -155.63)"/><path class="cls-3" d="M261.53,433.49l-.95.95a.24.24,0,0,1-.35,0l-1.13-1.12,1.13-1.13a.28.28,0,0,1,.17-.07.29.29,0,0,1,.18.07l.95.95a.24.24,0,0,1,0,.35m.28-.63-.95-.94a.6.6,0,0,0-.46-.19.6.6,0,0,0-.45.19l-1.4,1.4,1.4,1.4a.65.65,0,0,0,.45.19.68.68,0,0,0,.46-.19l.95-1a.65.65,0,0,0,0-.91" transform="translate(-0.93 -155.63)"/><path class="cls-3" d="M259.16,435.86,258,437l-1.31-1.3a.24.24,0,0,1-.07-.18v-1.31l.59-.59,1.91,1.91a.24.24,0,0,1,0,.35m-3.31-1.42a.27.27,0,0,1-.36,0l-1.12-1.12,1.12-1.13a.27.27,0,0,1,.36,0l1.12,1.13Zm.81-3.31a.23.23,0,0,1,.07-.17l1.31-1.31,1.12,1.12a.25.25,0,0,1,0,.36L257.25,433l-.59-.59Zm.87,2.19,1.91-1.92a.65.65,0,0,0,0-.91l-1.4-1.4-1.59,1.59a.64.64,0,0,0-.19.45v.92l-.14-.14a.65.65,0,0,0-.91,0l-1.4,1.41,1.4,1.4a.68.68,0,0,0,.46.19.64.64,0,0,0,.45-.19l.14-.14v.92a.64.64,0,0,0,.19.45l1.59,1.59,1.4-1.4a.65.65,0,0,0,0-.91Z" transform="translate(-0.93 -155.63)"/><path class="cls-7" d="M304.86,418.37a6,6,0,0,0-5.26,8.82l4.93,8.92a.37.37,0,0,0,.33.19.39.39,0,0,0,.33-.19l4.93-8.92a6,6,0,0,0-5.26-8.82" transform="translate(-0.93 -155.63)"/><path class="cls-3" d="M308.48,424.53l-.94,1a.27.27,0,0,1-.36,0l-1.12-1.13,1.12-1.12a.27.27,0,0,1,.36,0l.94.95a.24.24,0,0,1,0,.35m.28-.63-.95-.95a.63.63,0,0,0-.9,0l-1.41,1.4,1.41,1.4a.63.63,0,0,0,.9,0l.95-.94a.65.65,0,0,0,0-.91" transform="translate(-0.93 -155.63)"/><path class="cls-3" d="M306.12,426.9,305,428l-1.31-1.31a.28.28,0,0,1-.07-.17v-1.32l.59-.59,1.92,1.91a.27.27,0,0,1,0,.36m-3.32-1.42a.28.28,0,0,1-.17.07.27.27,0,0,1-.18-.07l-1.13-1.13,1.13-1.12a.24.24,0,0,1,.35,0l1.13,1.12Zm.81-3.31a.29.29,0,0,1,.07-.18l1.31-1.3,1.13,1.12a.26.26,0,0,1,0,.35l-1.92,1.91-.59-.59Zm.87,2.18,1.91-1.91a.65.65,0,0,0,0-.91l-1.4-1.4-1.58,1.59a.6.6,0,0,0-.19.45v.92l-.14-.14a.65.65,0,0,0-.91,0l-1.4,1.4,1.4,1.4a.6.6,0,0,0,.46.19.6.6,0,0,0,.45-.19l.14-.13v.92a.6.6,0,0,0,.19.45l1.58,1.59,1.4-1.4a.65.65,0,0,0,0-.91Z" transform="translate(-0.93 -155.63)"/><path class="cls-7" d="M287.13,458.59a6,6,0,0,0-5.26,8.81l4.94,8.92a.37.37,0,0,0,.32.2.38.38,0,0,0,.33-.2l4.93-8.92a6,6,0,0,0-5.26-8.81" transform="translate(-0.93 -155.63)"/><path class="cls-3" d="M290.76,464.74l-.95.95a.24.24,0,0,1-.35,0l-1.13-1.12,1.13-1.13a.22.22,0,0,1,.17-.07.24.24,0,0,1,.18.07l.95.95a.26.26,0,0,1,0,.35m.28-.63-1-.95a.63.63,0,0,0-.46-.18.63.63,0,0,0-.45.18l-1.4,1.41,1.4,1.4a.65.65,0,0,0,.45.19.68.68,0,0,0,.46-.19l1-1a.65.65,0,0,0,0-.91" transform="translate(-0.93 -155.63)"/><path class="cls-3" d="M288.39,467.11l-1.12,1.12L286,466.92a.21.21,0,0,1-.07-.17v-1.31l.59-.6,1.91,1.92a.24.24,0,0,1,0,.35m-3.31-1.42a.27.27,0,0,1-.36,0l-1.12-1.12,1.12-1.13a.25.25,0,0,1,.36,0l1.12,1.13Zm.81-3.31a.22.22,0,0,1,.07-.17l1.31-1.31,1.12,1.12a.24.24,0,0,1,0,.35l-1.91,1.92-.59-.59Zm.87,2.19,1.91-1.92a.65.65,0,0,0,0-.91l-1.4-1.4-1.59,1.59a.64.64,0,0,0-.19.45v.92l-.14-.14a.65.65,0,0,0-.91,0l-1.4,1.41,1.4,1.4a.68.68,0,0,0,.46.19.64.64,0,0,0,.45-.19l.14-.14v.92a.64.64,0,0,0,.19.45l1.59,1.59,1.4-1.4a.65.65,0,0,0,0-.91Z" transform="translate(-0.93 -155.63)"/><path class="cls-7" d="M329.87,496.79a6,6,0,0,0-5.26,8.81l4.93,8.92a.4.4,0,0,0,.33.2.38.38,0,0,0,.33-.2l4.93-8.92a6,6,0,0,0-5.26-8.81" transform="translate(-0.93 -155.63)"/><path class="cls-3" d="M333.5,502.94l-.95.95a.24.24,0,0,1-.35,0l-1.13-1.13,1.13-1.12a.22.22,0,0,1,.17-.07.24.24,0,0,1,.18.07l.95.95a.26.26,0,0,1,0,.35m.27-.63-.94-.95a.65.65,0,0,0-.46-.18.63.63,0,0,0-.45.18l-1.4,1.4,1.4,1.41a.64.64,0,0,0,.45.18.67.67,0,0,0,.46-.18l.94-.95a.65.65,0,0,0,0-.91" transform="translate(-0.93 -155.63)"/><path class="cls-3" d="M331.13,505.31,330,506.43l-1.3-1.31a.23.23,0,0,1-.08-.17v-1.31l.6-.6,1.91,1.92a.24.24,0,0,1,0,.35m-3.32-1.42a.22.22,0,0,1-.17.07.24.24,0,0,1-.18-.07l-1.12-1.12,1.12-1.13a.24.24,0,0,1,.35,0l1.13,1.13Zm.81-3.31a.23.23,0,0,1,.08-.17l1.3-1.31,1.13,1.12a.24.24,0,0,1,0,.35l-1.91,1.92-.6-.59Zm.87,2.19,1.92-1.92a.65.65,0,0,0,0-.91l-1.41-1.4-1.58,1.59a.64.64,0,0,0-.19.45v.92l-.14-.14a.65.65,0,0,0-.91,0l-1.4,1.41,1.4,1.4a.66.66,0,0,0,.46.19.64.64,0,0,0,.45-.19l.14-.14V505a.64.64,0,0,0,.19.45L330,507l1.41-1.4a.65.65,0,0,0,0-.91Z" transform="translate(-0.93 -155.63)"/><path class="cls-7" d="M332,427.34a6,6,0,0,0-5.26,8.81l4.93,8.93a.41.41,0,0,0,.33.19.4.4,0,0,0,.33-.19l4.93-8.93a6,6,0,0,0-5.26-8.81" transform="translate(-0.93 -155.63)"/><path class="cls-3" d="M335.64,433.49l-.95.95a.24.24,0,0,1-.35,0l-1.13-1.12,1.13-1.13a.26.26,0,0,1,.17-.07.29.29,0,0,1,.18.07l.95.95a.26.26,0,0,1,0,.35m.27-.63-.94-.94a.6.6,0,0,0-.46-.19.6.6,0,0,0-.45.19l-1.4,1.4,1.4,1.4a.65.65,0,0,0,.45.19.68.68,0,0,0,.46-.19l.94-1a.65.65,0,0,0,0-.91" transform="translate(-0.93 -155.63)"/><path class="cls-3" d="M333.27,435.86,332.15,437l-1.31-1.3a.25.25,0,0,1-.08-.18v-1.31l.6-.59,1.91,1.91a.24.24,0,0,1,0,.35M330,434.44a.22.22,0,0,1-.17.07.24.24,0,0,1-.18-.07l-1.12-1.12,1.12-1.13a.26.26,0,0,1,.35,0l1.13,1.13Zm.81-3.31a.25.25,0,0,1,.08-.17l1.31-1.31,1.12,1.12a.25.25,0,0,1,0,.36L331.36,433l-.6-.59Zm.87,2.19,1.92-1.92a.65.65,0,0,0,0-.91l-1.4-1.4-1.59,1.59a.64.64,0,0,0-.19.45v.92l-.14-.14a.65.65,0,0,0-.91,0l-1.4,1.41,1.4,1.4a.66.66,0,0,0,.46.19.64.64,0,0,0,.45-.19l.14-.14v.92a.64.64,0,0,0,.19.45l1.59,1.59,1.4-1.4a.65.65,0,0,0,0-.91Z" transform="translate(-0.93 -155.63)"/><path class="cls-7" d="M405.3,451.25a6,6,0,0,0-5.26,8.82L405,469a.37.37,0,0,0,.33.19.36.36,0,0,0,.32-.19l4.94-8.92a6,6,0,0,0-5.26-8.82" transform="translate(-0.93 -155.63)"/><path class="cls-3" d="M408.92,457.41l-.95.95a.26.26,0,0,1-.35,0l-1.12-1.13,1.12-1.12a.25.25,0,0,1,.18-.08.23.23,0,0,1,.17.08l.95.94a.25.25,0,0,1,0,.36m.28-.63-.95-.95a.64.64,0,0,0-.45-.19.68.68,0,0,0-.46.19l-1.4,1.4,1.4,1.4a.63.63,0,0,0,.46.19.61.61,0,0,0,.45-.19l.95-.94a.65.65,0,0,0,0-.91" transform="translate(-0.93 -155.63)"/><path class="cls-3" d="M406.55,459.77l-1.12,1.13-1.31-1.31a.29.29,0,0,1-.07-.18V458.1l.59-.59,1.91,1.91a.24.24,0,0,1,0,.35m-3.31-1.42a.25.25,0,0,1-.18.08.23.23,0,0,1-.17-.08l-1.13-1.12,1.13-1.12a.24.24,0,0,1,.35,0l1.12,1.12Zm.81-3.3a.29.29,0,0,1,.07-.18l1.31-1.31,1.12,1.13a.24.24,0,0,1,0,.35L404.64,457l-.59-.59Zm.87,2.18,1.91-1.91a.65.65,0,0,0,0-.91l-1.4-1.4-1.59,1.58a.68.68,0,0,0-.19.46V456l-.13-.14a.65.65,0,0,0-.91,0l-1.4,1.4,1.4,1.4a.64.64,0,0,0,.45.19.66.66,0,0,0,.46-.19l.13-.13v.91a.64.64,0,0,0,.19.46l1.59,1.59,1.4-1.41a.65.65,0,0,0,0-.91Z" transform="translate(-0.93 -155.63)"/><path class="cls-7" d="M373.13,452.73a6,6,0,0,0-5.26,8.82l4.93,8.92a.36.36,0,0,0,.33.19.36.36,0,0,0,.32-.19l4.94-8.92a6.1,6.1,0,0,0,.71-2.84,6,6,0,0,0-6-6" transform="translate(-0.93 -155.63)"/><path class="cls-3" d="M376.75,458.89l-.95.94a.24.24,0,0,1-.35,0l-1.12-1.12,1.12-1.12a.25.25,0,0,1,.18-.08.23.23,0,0,1,.17.08l.95.94a.25.25,0,0,1,0,.36m.28-.63-.95-.95a.64.64,0,0,0-.91,0l-1.4,1.4,1.4,1.4a.63.63,0,0,0,.46.19.61.61,0,0,0,.45-.19l.95-.95a.63.63,0,0,0,0-.9" transform="translate(-0.93 -155.63)"/><path class="cls-3" d="M374.38,461.25l-1.12,1.13L372,461.07a.24.24,0,0,1-.07-.18v-1.31l.59-.59,1.91,1.91a.24.24,0,0,1,0,.35m-3.31-1.42a.25.25,0,0,1-.18.08.27.27,0,0,1-.18-.08l-1.12-1.12,1.12-1.12a.25.25,0,0,1,.36,0l1.12,1.12Zm.81-3.3a.24.24,0,0,1,.07-.18l1.31-1.31,1.12,1.13a.24.24,0,0,1,0,.35l-1.91,1.91-.59-.59Zm.87,2.18,1.91-1.91a.65.65,0,0,0,0-.91l-1.4-1.4-1.59,1.58a.66.66,0,0,0-.19.46v.92l-.13-.14a.65.65,0,0,0-.91,0l-1.41,1.4,1.41,1.4a.64.64,0,0,0,.45.19.68.68,0,0,0,.46-.19l.13-.14v.92a.66.66,0,0,0,.19.46l1.59,1.58,1.4-1.4a.65.65,0,0,0,0-.91Z" transform="translate(-0.93 -155.63)"/><path class="cls-7" d="M383.29,469.18A6,6,0,0,0,378,478l4.93,8.92a.39.39,0,0,0,.33.19.37.37,0,0,0,.33-.19l4.93-8.92a6,6,0,0,0-5.26-8.82" transform="translate(-0.93 -155.63)"/><path class="cls-3" d="M386.92,475.34l-.95.94a.24.24,0,0,1-.35,0l-1.13-1.12,1.13-1.12a.23.23,0,0,1,.17-.08.25.25,0,0,1,.18.08l.95.94a.27.27,0,0,1,0,.36m.27-.63-.94-.95a.64.64,0,0,0-.91,0l-1.4,1.4,1.4,1.4a.61.61,0,0,0,.45.19.63.63,0,0,0,.46-.19l.94-.95a.63.63,0,0,0,0-.9" transform="translate(-0.93 -155.63)"/><path class="cls-3" d="M384.55,477.7l-1.12,1.13-1.31-1.31a.25.25,0,0,1-.08-.18V476l.6-.59,1.91,1.91a.24.24,0,0,1,0,.35m-3.31-1.42a.27.27,0,0,1-.18.08.25.25,0,0,1-.18-.08l-1.12-1.12,1.12-1.12a.25.25,0,0,1,.36,0l1.12,1.12Zm.8-3.3a.25.25,0,0,1,.08-.18l1.31-1.31,1.12,1.13a.24.24,0,0,1,0,.35l-1.91,1.91-.6-.59Zm.87,2.18,1.92-1.91a.65.65,0,0,0,0-.91l-1.4-1.4-1.59,1.58a.66.66,0,0,0-.19.46v.92l-.14-.14a.65.65,0,0,0-.91,0l-1.4,1.4,1.4,1.4a.66.66,0,0,0,.46.19.64.64,0,0,0,.45-.19l.14-.14v.92a.66.66,0,0,0,.19.46l1.59,1.58,1.4-1.4a.65.65,0,0,0,0-.91Z" transform="translate(-0.93 -155.63)"/><path class="cls-7" d="M354.39,426a6,6,0,0,0-5.25,8.82l4.93,8.92a.36.36,0,0,0,.32.19.36.36,0,0,0,.33-.19l4.94-8.92a6.1,6.1,0,0,0,.71-2.84,6,6,0,0,0-6-6" transform="translate(-0.93 -155.63)"/><path class="cls-3" d="M358,432.2l-.95.95a.26.26,0,0,1-.35,0L355.6,432l1.12-1.12a.24.24,0,0,1,.18-.07.22.22,0,0,1,.17.07l.95,1a.24.24,0,0,1,0,.35m.28-.63-.95-.95a.64.64,0,0,0-.91,0L355,432l1.4,1.4a.64.64,0,0,0,.91,0l.95-.94a.65.65,0,0,0,0-.91" transform="translate(-0.93 -155.63)"/><path class="cls-3" d="M355.65,434.57l-1.12,1.12-1.31-1.31a.23.23,0,0,1-.07-.17v-1.32l.59-.59,1.91,1.91a.25.25,0,0,1,0,.36m-3.31-1.42a.27.27,0,0,1-.36,0L350.86,432,352,430.9a.25.25,0,0,1,.36,0l1.12,1.12Zm.81-3.31a.24.24,0,0,1,.07-.18l1.31-1.3,1.12,1.12a.24.24,0,0,1,0,.35l-1.91,1.91-.59-.59ZM354,432l1.91-1.91a.65.65,0,0,0,0-.91l-1.4-1.4-1.59,1.59a.64.64,0,0,0-.19.45v.92l-.13-.14a.65.65,0,0,0-.91,0L350.3,432l1.41,1.4a.6.6,0,0,0,.45.19.63.63,0,0,0,.46-.19l.13-.13v.92a.64.64,0,0,0,.19.45l1.59,1.59,1.4-1.4a.65.65,0,0,0,0-.91Z" transform="translate(-0.93 -155.63)"/><path class="cls-7" d="M336.17,450.47a6,6,0,0,0-5.26,8.82l4.93,8.92a.37.37,0,0,0,.33.19.36.36,0,0,0,.32-.19l4.94-8.92a6,6,0,0,0-5.26-8.82" transform="translate(-0.93 -155.63)"/><path class="cls-3" d="M339.79,456.63l-1,.95a.26.26,0,0,1-.35,0l-1.12-1.13,1.12-1.12a.24.24,0,0,1,.18-.07.22.22,0,0,1,.17.07l1,.95a.24.24,0,0,1,0,.35m.28-.63-.95-.95a.64.64,0,0,0-.45-.19.68.68,0,0,0-.46.19l-1.4,1.4,1.4,1.4a.63.63,0,0,0,.46.19.61.61,0,0,0,.45-.19l.95-.94a.65.65,0,0,0,0-.91" transform="translate(-0.93 -155.63)"/><path class="cls-3" d="M337.42,459l-1.12,1.12L335,458.81a.29.29,0,0,1-.07-.18v-1.31l.59-.59,1.91,1.91a.25.25,0,0,1,0,.36m-3.31-1.42a.29.29,0,0,1-.18.07.26.26,0,0,1-.17-.07l-1.13-1.13,1.13-1.12a.24.24,0,0,1,.35,0l1.12,1.12Zm.81-3.31a.29.29,0,0,1,.07-.18l1.31-1.31,1.12,1.13a.24.24,0,0,1,0,.35l-1.91,1.91-.59-.59Zm.87,2.18,1.91-1.91a.65.65,0,0,0,0-.91l-1.4-1.4-1.59,1.58a.68.68,0,0,0-.19.46v.92l-.13-.14a.65.65,0,0,0-.91,0l-1.4,1.4,1.4,1.4a.6.6,0,0,0,.45.19.62.62,0,0,0,.46-.19l.13-.13v.91a.64.64,0,0,0,.19.46l1.59,1.59,1.4-1.41a.65.65,0,0,0,0-.91Z" transform="translate(-0.93 -155.63)"/><path class="cls-7" d="M350.16,452.73a6,6,0,0,0-5.26,8.82l4.94,8.92a.36.36,0,0,0,.32.19.37.37,0,0,0,.33-.19l4.93-8.92a6,6,0,0,0-5.26-8.82" transform="translate(-0.93 -155.63)"/><path class="cls-3" d="M353.79,458.89l-1,.94a.24.24,0,0,1-.35,0l-1.13-1.12,1.13-1.12a.23.23,0,0,1,.17-.08.25.25,0,0,1,.18.08l1,.94a.27.27,0,0,1,0,.36m.28-.63-.95-.95a.64.64,0,0,0-.91,0l-1.4,1.4,1.4,1.4a.61.61,0,0,0,.45.19.63.63,0,0,0,.46-.19l.95-.95a.63.63,0,0,0,0-.9" transform="translate(-0.93 -155.63)"/><path class="cls-3" d="M351.42,461.25l-1.12,1.13L349,461.07a.24.24,0,0,1-.07-.18v-1.31l.59-.59,1.91,1.91a.24.24,0,0,1,0,.35m-3.31-1.42a.24.24,0,0,1-.36,0l-1.12-1.12,1.12-1.12a.25.25,0,0,1,.36,0l1.12,1.12Zm.81-3.3a.24.24,0,0,1,.07-.18L350.3,455l1.12,1.13a.24.24,0,0,1,0,.35l-1.91,1.91-.59-.59Zm.87,2.18,1.91-1.91a.65.65,0,0,0,0-.91l-1.4-1.4-1.59,1.58a.66.66,0,0,0-.19.46v.92l-.14-.14a.65.65,0,0,0-.91,0l-1.4,1.4,1.4,1.4a.68.68,0,0,0,.46.19.64.64,0,0,0,.45-.19l.14-.14v.92a.66.66,0,0,0,.19.46l1.59,1.58,1.4-1.4a.65.65,0,0,0,0-.91Z" transform="translate(-0.93 -155.63)"/><path class="cls-7" d="M354.39,469.18a6,6,0,0,0-5.25,8.82l4.93,8.92a.36.36,0,0,0,.32.19.36.36,0,0,0,.33-.19l4.94-8.92a6.1,6.1,0,0,0,.71-2.84,6,6,0,0,0-6-6" transform="translate(-0.93 -155.63)"/><path class="cls-3" d="M358,475.34l-.95.94a.24.24,0,0,1-.35,0l-1.12-1.12,1.12-1.12a.25.25,0,0,1,.18-.08.23.23,0,0,1,.17.08l.95.94a.25.25,0,0,1,0,.36m.28-.63-.95-.95a.64.64,0,0,0-.91,0l-1.4,1.4,1.4,1.4a.64.64,0,0,0,.91,0l.95-.95a.63.63,0,0,0,0-.9" transform="translate(-0.93 -155.63)"/><path class="cls-3" d="M355.65,477.7l-1.12,1.13-1.31-1.31a.24.24,0,0,1-.07-.18V476l.59-.59,1.91,1.91a.24.24,0,0,1,0,.35m-3.31-1.42a.24.24,0,0,1-.36,0l-1.12-1.12L352,474a.25.25,0,0,1,.36,0l1.12,1.12Zm.81-3.3a.24.24,0,0,1,.07-.18l1.31-1.31,1.12,1.13a.24.24,0,0,1,0,.35l-1.91,1.91-.59-.59Zm.87,2.18,1.91-1.91a.65.65,0,0,0,0-.91l-1.4-1.4-1.59,1.58a.66.66,0,0,0-.19.46v.92l-.13-.14a.65.65,0,0,0-.91,0l-1.41,1.4,1.41,1.4a.64.64,0,0,0,.45.19.68.68,0,0,0,.46-.19l.13-.14v.92a.66.66,0,0,0,.19.46l1.59,1.58,1.4-1.4a.65.65,0,0,0,0-.91Z" transform="translate(-0.93 -155.63)"/><path class="cls-7" d="M485.93,511a6,6,0,0,0-5.26,8.81l4.93,8.92a.36.36,0,0,0,.33.19.36.36,0,0,0,.32-.19l4.94-8.92a6.1,6.1,0,0,0,.71-2.84,6,6,0,0,0-6-6" transform="translate(-0.93 -155.63)"/><path class="cls-3" d="M489.55,517.18l-.95,1a.26.26,0,0,1-.35,0L487.13,517l1.12-1.12a.24.24,0,0,1,.18-.07.22.22,0,0,1,.17.07l.95,1a.24.24,0,0,1,0,.35m.28-.63-.95-.95a.64.64,0,0,0-.91,0l-1.4,1.4,1.4,1.4a.63.63,0,0,0,.46.19.61.61,0,0,0,.45-.19l.95-.94a.65.65,0,0,0,0-.91" transform="translate(-0.93 -155.63)"/><path class="cls-3" d="M487.18,519.55l-1.12,1.12-1.31-1.31a.23.23,0,0,1-.07-.17v-1.32l.59-.59,1.91,1.91a.25.25,0,0,1,0,.36m-3.31-1.42a.27.27,0,0,1-.36,0L482.39,517l1.12-1.12a.25.25,0,0,1,.36,0L485,517Zm.81-3.31a.24.24,0,0,1,.07-.18l1.31-1.3,1.12,1.12a.24.24,0,0,1,0,.35l-1.91,1.91-.59-.59Zm.87,2.18,1.91-1.91a.65.65,0,0,0,0-.91l-1.4-1.4-1.59,1.59a.64.64,0,0,0-.19.45v.92l-.13-.14a.65.65,0,0,0-.91,0l-1.41,1.4,1.41,1.41a.63.63,0,0,0,.45.18.67.67,0,0,0,.46-.18l.13-.14v.92a.64.64,0,0,0,.19.45l1.59,1.59,1.4-1.4a.65.65,0,0,0,0-.91Z" transform="translate(-0.93 -155.63)"/><path class="cls-7" d="M532.52,467.47a6,6,0,0,0-5.26,8.81l4.94,8.92a.36.36,0,0,0,.32.19.37.37,0,0,0,.33-.19l4.93-8.92a6,6,0,0,0-5.26-8.81" transform="translate(-0.93 -155.63)"/><path class="cls-3" d="M536.15,473.62l-.95.95a.26.26,0,0,1-.35,0l-1.13-1.13,1.13-1.12a.22.22,0,0,1,.17-.07.24.24,0,0,1,.18.07l.95.95a.26.26,0,0,1,0,.35m.27-.63-.94-.95a.64.64,0,0,0-.91,0l-1.4,1.4,1.4,1.41a.64.64,0,0,0,.45.18.67.67,0,0,0,.46-.18l.94-1a.63.63,0,0,0,0-.91" transform="translate(-0.93 -155.63)"/><path class="cls-3" d="M533.78,476l-1.12,1.12-1.31-1.31a.23.23,0,0,1-.08-.17v-1.32l.6-.59,1.91,1.92a.24.24,0,0,1,0,.35m-3.31-1.42a.31.31,0,0,1-.18.07.29.29,0,0,1-.18-.07L529,473.44l1.12-1.12a.25.25,0,0,1,.36,0l1.12,1.12Zm.8-3.31a.21.21,0,0,1,.08-.17l1.31-1.31,1.12,1.12a.24.24,0,0,1,0,.35l-1.91,1.92-.6-.6Zm.87,2.18,1.92-1.91a.65.65,0,0,0,0-.91l-1.4-1.4-1.59,1.59a.64.64,0,0,0-.19.45v.92l-.14-.14a.65.65,0,0,0-.91,0l-1.4,1.4,1.4,1.41a.65.65,0,0,0,.46.18.63.63,0,0,0,.45-.18l.14-.14v.92a.64.64,0,0,0,.19.45l1.59,1.59,1.4-1.4a.65.65,0,0,0,0-.91Z" transform="translate(-0.93 -155.63)"/><path class="cls-7" d="M560.36,409.41a6,6,0,0,0-5.26,8.82l4.93,8.92a.38.38,0,0,0,.66,0l4.93-8.93a5.92,5.92,0,0,0,.72-2.83,6,6,0,0,0-6-6" transform="translate(-0.93 -155.63)"/><path class="cls-3" d="M564,415.56l-.94.95a.24.24,0,0,1-.35,0l-1.13-1.12,1.13-1.13a.24.24,0,0,1,.17-.07.29.29,0,0,1,.18.07l.94.95a.24.24,0,0,1,0,.35m.28-.63-.94-.94a.63.63,0,0,0-.46-.19.6.6,0,0,0-.45.19l-1.41,1.4,1.41,1.4a.61.61,0,0,0,.45.19.63.63,0,0,0,.46-.19l.94-1a.65.65,0,0,0,0-.91" transform="translate(-0.93 -155.63)"/><path class="cls-3" d="M561.62,417.93l-1.13,1.13-1.31-1.31a.29.29,0,0,1-.07-.18v-1.31l.59-.59,1.92,1.91a.26.26,0,0,1,0,.35m-3.32-1.42a.22.22,0,0,1-.17.07.24.24,0,0,1-.18-.07l-1.12-1.12,1.12-1.13a.26.26,0,0,1,.35,0l1.13,1.13Zm.81-3.31a.28.28,0,0,1,.07-.17l1.31-1.31,1.13,1.12a.27.27,0,0,1,0,.36l-1.92,1.91-.59-.59Zm.87,2.19,1.92-1.92a.63.63,0,0,0,0-.9l-1.41-1.41-1.58,1.59a.64.64,0,0,0-.19.45v.92l-.14-.13a.65.65,0,0,0-.91,0l-1.4,1.4,1.4,1.4a.64.64,0,0,0,.91,0l.14-.14v.92a.68.68,0,0,0,.19.46l1.58,1.58,1.41-1.4a.65.65,0,0,0,0-.91Z" transform="translate(-0.93 -155.63)"/></g></g></svg>